<svg width="352" height="87" viewBox="0 0 352 87" fill="none" xmlns="http://www.w3.org/2000/svg">
<path d="M126.786 18.7355C126.786 14.6203 124.625 14.8971 122.558 14.852V13.673L127.984 13.753L135.942 13.673C147.836 13.673 154.319 21.5794 154.319 29.6848C154.319 34.2162 151.66 45.6043 135.386 45.6043C133.05 45.6043 130.879 45.512 128.718 45.512C126.557 45.512 124.629 45.5591 122.56 45.6043V44.413C125.314 44.1362 126.649 44.0439 126.788 40.9457V18.7581L126.786 18.7355ZM131.293 40.1911C131.293 43.7179 133.825 44.1218 136.079 44.1218C146.011 44.1218 149.263 36.6644 149.263 29.857C149.263 21.3026 143.745 15.1288 134.881 15.1288C132.999 15.1288 132.128 15.2559 131.291 15.3133V40.1911H131.293ZM155.921 44.3986H156.792C158.082 44.3986 158.999 44.3986 158.999 42.8833V30.4906C158.999 28.4791 158.314 28.2023 156.606 27.2878V26.5599L161.531 24.9073C161.857 24.733 162.123 24.6879 162.355 24.6879C162.587 24.6879 162.681 24.9544 162.681 25.3235V42.8833C162.681 44.3986 163.692 44.3986 164.982 44.3986H165.761V45.5899C164.205 45.5899 162.589 45.4976 160.94 45.4976L155.933 45.5899V44.3986H155.921ZM160.846 17.6467C159.648 17.6467 158.593 16.5477 158.593 15.3585C158.593 14.1692 159.696 13.1625 160.846 13.1625C161.996 13.1625 163.099 14.1221 163.099 15.3585C163.099 16.5949 162.089 17.6467 160.846 17.6467ZM170.126 30.7694C170.126 29.0819 169.626 28.6185 167.467 27.7512V26.8736L173.53 24.6776C173.669 24.6776 173.796 24.7699 173.796 25.1287V28.1121C176.421 26.2278 178.674 24.6776 181.754 24.6776C185.658 24.6776 187.04 27.5093 187.04 31.0832V42.8751C187.04 44.3904 188.051 44.3904 189.341 44.3904H190.165V45.5817C188.551 45.5817 186.948 45.4894 185.297 45.4894L180.325 45.5817V44.3904H181.149C182.439 44.3904 183.345 44.3904 183.345 42.8751V31.038C183.345 28.4258 181.742 27.1545 179.117 27.1545C177.643 27.1545 175.308 28.3458 173.786 29.3505V42.8772C173.786 44.3925 174.809 44.3925 176.087 44.3925H176.911V45.5838C175.308 45.5838 173.694 45.4915 172.033 45.4915L167.073 45.5838V44.3925H167.91C169.199 44.3925 170.106 44.3925 170.106 42.8772V30.7612L170.128 30.7735L170.126 30.7694ZM193.661 32.9654C193.569 33.3817 193.569 34.0645 193.661 35.6125C193.927 39.9594 196.739 43.5313 200.411 43.5313C202.943 43.5313 204.918 42.1554 206.613 40.4679L207.253 41.1036C205.139 43.8901 202.525 46.2706 198.75 46.2706C191.444 46.2706 189.968 39.2295 189.968 36.3056C189.968 27.335 196.031 24.6879 199.25 24.6879C202.98 24.6879 206.974 27.011 207.021 31.8664L206.987 32.6989L206.568 32.9757H193.663V32.9634L193.661 32.9654ZM201.793 31.4973C202.943 31.4973 203.07 30.9068 203.07 30.3532C203.07 28.0178 201.641 26.1457 199.074 26.1457C196.275 26.1457 194.346 28.2044 193.788 31.4973H201.793ZM208.09 44.3986H209.332C210.622 44.3986 211.528 44.3986 211.528 42.8833V30.0395C211.528 28.6185 209.833 28.352 209.148 27.9809V27.2981L214.758 24.6858C215.024 24.6858 215.164 24.813 215.164 25.2764V29.3916H215.256C216.406 27.6118 218.334 24.6858 221.135 24.6858C222.285 24.6858 223.749 25.4609 223.749 27.1135C223.749 28.3499 222.877 29.449 221.588 29.449C220.159 29.449 220.159 28.3499 218.555 28.3499C217.776 28.3499 215.199 29.4018 215.199 32.1535V42.8936C215.199 44.4089 216.117 44.4089 217.405 44.4089H219.972V45.6002L213.536 45.5079L208.065 45.6002V44.4089L208.088 44.3966L208.09 44.3986ZM225.781 39.2315C226.386 42.2498 228.221 44.8148 231.577 44.8148C234.284 44.8148 235.295 43.1622 235.295 41.567C235.295 36.1682 225.281 37.9029 225.281 30.5377C225.281 27.9706 227.347 24.6879 232.402 24.6879C233.866 24.6879 235.84 25.1041 237.64 26.0063L237.967 30.6772H236.908C236.455 27.7984 234.842 26.1457 231.901 26.1457C230.066 26.1457 228.323 27.1976 228.323 29.164C228.323 34.5156 238.988 32.8752 238.988 40.0538C238.988 43.072 236.548 46.2727 231.089 46.2727C229.242 46.2727 227.081 45.6371 225.479 44.7226L224.979 39.4632L225.803 39.2315H225.781ZM280.482 21.9362H279.332C278.46 16.5846 274.638 14.4337 269.504 14.4337C264.37 14.4337 256.541 17.9604 256.541 28.9302C256.541 38.1797 263.174 44.8148 270.236 44.8148C274.79 44.8148 278.553 41.7044 279.483 36.8961L280.542 37.1627L279.483 43.845C277.556 45.0363 272.35 46.2727 269.32 46.2727C258.563 46.2727 251.768 39.371 251.768 29.0696C251.768 19.6931 260.166 12.9656 269.18 12.9656C272.91 12.9656 276.486 14.1569 280.029 15.3933L280.482 21.9362ZM282.133 44.3986H283.016C284.306 44.3986 285.223 44.3986 285.223 42.8833V17.4171C285.223 14.4337 284.538 14.3414 282.783 13.8452V13.1173C284.618 12.5268 286.547 11.7067 287.521 11.153C288.021 10.8865 288.393 10.6445 288.532 10.6445C288.811 10.6445 288.903 10.9213 288.903 11.2925V42.8874C288.903 44.4027 289.914 44.4027 291.204 44.4027H291.983V45.594C290.427 45.594 288.811 45.5017 287.15 45.5017L282.143 45.594V44.4027H282.131L282.133 44.3986ZM311.648 43.0699C311.648 43.9024 312.149 43.9373 312.938 43.9373L314.786 43.8901V44.8497C312.799 45.0342 309.036 45.9938 308.153 46.2604L307.931 46.121V42.422C305.177 44.6652 303.053 46.2604 299.789 46.2604C297.304 46.2604 294.737 44.6652 294.737 40.8268V29.1168C294.737 27.9255 294.55 26.7814 291.983 26.5497V25.6823L297.907 25.3584C298.417 25.3584 298.417 25.6823 298.417 26.6768V38.4811C298.417 39.8569 298.417 43.7876 302.413 43.7876C303.97 43.7876 306.039 42.5963 307.966 41.0011V28.6883C307.966 27.7758 305.76 27.2776 304.109 26.8162V25.9961L311.277 25.3604C311.648 25.3604 311.648 25.6844 311.648 26.1806V43.0474V43.0699ZM320.791 27.9727C322.626 26.4225 325.112 24.6899 327.646 24.6899C332.977 24.6899 336.196 29.3136 336.196 34.2962C336.196 40.2855 331.782 46.285 325.208 46.285C321.804 46.285 320.027 45.186 318.819 44.6898L317.437 45.7416L316.473 45.2454C316.879 42.5512 317.113 39.8938 317.113 37.1073V17.4171C317.113 14.4337 316.428 14.3414 314.673 13.8452V13.1173C316.52 12.5268 318.437 11.7067 319.411 11.153C319.912 10.8865 320.283 10.6445 320.422 10.6445C320.701 10.6445 320.783 10.9213 320.783 11.2925V27.985L320.795 27.9727H320.791ZM320.791 40.4126C320.791 42.1472 322.44 45.0834 325.53 45.0834C330.455 45.0834 332.524 40.2752 332.524 36.2051C332.524 31.2697 328.749 27.1525 325.171 27.1525C323.463 27.1525 322.046 28.2515 320.804 29.3034V40.4126H320.791ZM122.501 72.1798H122.85C123.744 72.1798 124.697 72.065 124.697 70.7589V57.7182C124.697 56.4243 123.744 56.2972 122.85 56.2972H122.501V55.5468L126.206 55.6513L130.133 55.5468V56.2972H129.784C128.89 56.2972 127.937 56.412 127.937 57.7182V70.7589C127.937 72.0527 128.89 72.1798 129.784 72.1798H130.133V72.9303C128.935 72.9303 127.426 72.838 126.184 72.838L122.501 72.9303V72.1798Z" fill="#211915"/>
<path d="M130.133 73.0362C128.926 73.0362 127.427 72.9439 126.184 72.9439L122.502 73.0362H122.385V72.0766H122.85C123.757 72.054 124.581 71.9843 124.593 70.7582V57.7175C124.593 56.5036 123.757 56.4237 122.85 56.3991H122.385V55.4395H122.502L126.207 55.5317L130.133 55.4395H130.25V56.3991H129.797C128.891 56.4114 128.054 56.4913 128.054 57.7175V70.7582C128.054 71.972 128.891 72.052 129.797 72.0766H130.25V73.0362H130.133ZM130.029 72.8291V72.298H129.785C128.891 72.298 127.822 72.1361 127.822 70.7725V57.7318C127.822 56.356 128.891 56.2063 129.785 56.2063H130.029V55.6753L126.219 55.7675C125.034 55.7675 123.595 55.6753 122.629 55.6753V56.2063H122.873C123.767 56.2063 124.825 56.356 124.825 57.7318V70.7725C124.825 72.1484 123.756 72.298 122.873 72.298H122.629V72.8291L126.194 72.7245L130.039 72.8291H130.029ZM147.314 68.0291L147.361 67.9819V58.6525C147.361 56.6184 145.932 56.317 145.177 56.317H144.632V55.5666L148.128 55.6711L151.195 55.5666V56.317H150.824C149.766 56.317 148.593 56.5139 148.593 59.4726V70.8012C148.593 71.6686 148.628 72.5359 148.745 73.3089H147.792L134.909 59.0195V69.2737C134.909 71.4471 135.327 72.1873 137.254 72.1873H137.685V72.9378C136.617 72.9378 135.536 72.8455 134.456 72.8455L131.064 72.9378V72.1873H131.413C133.143 72.1873 133.666 71.0206 133.666 69.0317V58.5458C133.666 57.1475 132.504 56.315 131.39 56.315H131.064V55.5645L133.933 55.6691L136.164 55.5645L147.291 68.0393L147.314 68.027V68.0291Z" fill="#211915"/>
<path d="M148.765 73.4169L147.732 73.382L135.035 59.3018V69.2791C135.07 71.4403 135.396 72.0657 137.276 72.0882H137.812V73.0478H137.695C136.614 73.0478 135.534 72.9555 134.465 72.9555L131.062 73.0478H130.957V72.0882H131.422C133.071 72.0759 133.549 71.024 133.571 69.0372V58.5513C133.571 57.2329 132.468 56.425 131.4 56.4127H130.959V55.4531H131.064L133.945 55.5454L136.255 55.488L147.244 67.8008V58.6456C147.231 56.669 145.907 56.425 145.177 56.4148H144.514V55.4552H144.631L148.127 55.5474L151.195 55.4552H151.312V56.4148H150.824C149.79 56.4496 148.732 56.5419 148.697 59.4658V70.7944C148.697 71.6617 148.72 72.5291 148.849 73.2918L148.872 73.4189H148.744H148.767L148.765 73.4169ZM147.812 73.1975H148.636C148.519 72.447 148.509 71.6248 148.509 70.7923V59.4638C148.509 56.4804 149.764 56.1913 150.844 56.1913H151.111V55.6602L148.148 55.7525C146.998 55.7525 145.882 55.6602 144.756 55.6602V56.1913H145.197C145.964 56.1913 147.485 56.5275 147.485 58.6415L147.451 68.0509L147.393 68.0981L147.311 68.1781L136.194 55.6705L133.963 55.7627C133.044 55.7627 132.105 55.6705 131.199 55.6705V56.2015H131.42C132.593 56.2015 133.801 57.0914 133.801 58.5493V69.0351C133.801 71.024 133.243 72.2953 131.443 72.3076H131.199V72.8387L134.486 72.7341L137.598 72.8387V72.3076H137.285C135.31 72.3076 134.822 71.4526 134.822 69.2791V58.7482L147.809 73.1995L147.812 73.1975Z" fill="#211915"/>
<path d="M154.957 56.8044C153.075 56.8044 153.017 57.2555 152.634 59.0702H151.89L152.191 56.9541C152.289 56.2529 152.339 55.546 152.343 54.8381H152.948C153.145 55.5885 153.772 55.5557 154.447 55.5557H167.352C168.026 55.5557 168.654 55.5332 168.699 54.793L169.292 54.8975L169.025 56.909L168.978 58.9205L168.234 59.1973C168.186 58.2725 168.059 56.8044 166.386 56.8044H162.285V70.042C162.285 71.9612 163.169 72.1806 164.364 72.1806H164.84V72.931C163.864 72.931 162.111 72.8387 160.762 72.8387L156.534 72.931V72.1806H157.01C158.392 72.1806 159.089 72.0657 159.089 70.0994V56.8044H154.988H154.953H154.957Z" fill="#211915"/>
<path d="M164.819 73.0362C163.831 73.0362 162.078 72.944 160.741 72.944L156.513 73.0362H156.408V72.0767H156.989C158.371 72.0418 158.928 72.0295 158.951 70.1V56.9097H154.955V56.7026H159.172V70.1021C159.172 72.091 158.358 72.2981 156.989 72.2981H156.618V72.8189L160.741 72.7266L164.702 72.8189V72.2981H164.341C163.134 72.2981 162.158 72.009 162.158 70.0447V56.6923H166.375C168.059 56.6923 168.268 58.1133 168.327 59.0401L168.873 58.8432L168.92 56.8892L169.176 54.9823L168.793 54.9126C168.666 55.6302 167.969 55.6753 167.341 55.663H154.309C153.716 55.663 153.076 55.6281 152.857 54.9454H152.439C152.439 55.6281 152.392 56.2986 152.287 56.9691L152.008 58.958H152.543C152.88 57.2234 153.089 56.6698 154.948 56.6923V56.8994C153.101 56.9343 153.148 57.2459 152.73 59.0852V59.1651H151.754V59.038L152.08 56.922C152.183 56.2289 152.234 55.5291 152.232 54.8285V54.7137H153.021V54.7936C153.208 55.417 153.671 55.4293 154.311 55.4416H167.343C168.04 55.4293 168.551 55.419 168.586 54.7711V54.6562L168.703 54.6788L169.412 54.7936V54.8982L169.133 56.9097L169.086 58.9211V59.0011L169.016 59.036L168.133 59.3599V59.2102C168.063 58.2732 167.958 56.922 166.38 56.922H162.383V70.0549C162.406 71.9393 163.162 72.0664 164.346 72.089H164.926V73.0486H164.821L164.819 73.0362ZM170.095 72.1812H170.444C171.338 72.1812 172.291 72.0664 172.291 70.7603V57.7196C172.291 56.4258 171.338 56.2986 170.444 56.2986H170.095V55.5482L176.322 55.6528L182.724 55.5482L182.781 59.364L182.026 59.5609C181.909 57.9431 181.608 56.6472 178.984 56.6472H175.51V63.1676H178.473C179.982 63.1676 180.308 62.3228 180.448 60.9818H181.192L181.122 63.8955L181.192 66.7271L180.448 66.8768C180.308 65.3861 180.226 64.4142 178.496 64.4142H175.498V70.2169C175.498 71.8347 176.937 71.8347 178.541 71.8347C181.549 71.8347 182.861 71.6379 183.617 68.7939L184.315 68.9682L183.466 72.9214C181.862 72.9214 178.994 72.8292 176.74 72.8292L170.095 72.9214V72.171V72.1812Z" fill="#211915"/>
<path d="M183.475 73.0362C181.872 73.0362 178.991 72.9316 176.75 72.9316L170.104 73.0362H169.987V72.0766H170.453C171.359 72.0643 172.183 71.9843 172.196 70.7582V57.7175C172.196 56.5036 171.359 56.4237 170.453 56.3991H169.987V55.4395H170.104L176.331 55.5317L182.733 55.4395H182.85V55.5543L182.815 56.8481L182.897 59.3558V59.448L182.815 59.4706L181.931 59.7023V59.5752C181.779 57.9676 181.56 56.7886 178.98 56.7661H175.612V63.067H178.48C179.92 63.067 180.176 62.3166 180.35 60.9735V60.8813H181.314V60.9961L181.232 63.9098L181.314 66.7414V66.8214L181.222 66.8439L180.35 67.0182V66.9034C180.164 65.3881 180.164 64.5556 178.503 64.5331H175.61V70.221C175.61 71.7362 176.922 71.7239 178.56 71.7362C181.568 71.7239 182.778 71.5742 183.532 68.7775L183.555 68.6729L183.66 68.6954L184.461 68.9025L184.439 69.0071L183.59 72.9603V73.0526H183.485L183.473 73.03L183.475 73.0362ZM183.383 72.8168L184.197 69.0481L183.696 68.921C182.952 71.7075 181.5 71.9495 178.55 71.9269C176.971 71.9269 175.402 71.9269 175.39 70.2046V64.2973H178.503C180.246 64.2747 180.42 65.3266 180.547 66.7475L181.092 66.6327L181.023 63.881L181.092 61.072H180.547C180.408 62.3781 180.002 63.2803 178.48 63.268H175.39V56.5282H178.98C181.582 56.5159 182.013 57.8466 182.118 59.407L182.663 59.2676L182.593 56.8399L182.616 55.6609L176.331 55.7532C174.275 55.7532 171.742 55.6609 170.209 55.6609V56.192H170.453C171.347 56.192 172.405 56.3416 172.415 57.7175V70.7582C172.415 72.134 171.347 72.2837 170.453 72.2837H170.209V72.8045L176.75 72.7122L183.383 72.8045V72.8168ZM187.693 58.1911C187.693 56.3765 186.694 56.3068 185.915 56.3068H185.462V55.5563L189.341 55.6609L193.372 55.5563C196.52 55.5563 199.321 56.4011 199.321 59.9381C199.321 62.1812 197.822 63.5448 195.847 64.3198L200.122 70.6782C200.82 71.7301 201.32 72.0315 202.55 72.1689V72.9193C201.726 72.9193 200.924 72.827 200.1 72.827L197.742 72.9193C195.814 70.4116 194.164 67.7174 192.538 64.8509H190.889V70.18C190.889 72.0991 191.783 72.1689 192.934 72.1689H193.387V72.9193C191.958 72.9193 190.506 72.827 189.077 72.827L185.452 72.9193V72.1689H185.905C186.823 72.1689 187.682 71.7526 187.682 70.8279V58.1809L187.695 58.1932L187.693 58.1911ZM190.9 63.959H192.12C194.629 63.959 195.964 63.0219 195.964 60.0755C195.964 57.8672 194.535 56.4462 192.316 56.4462C191.562 56.4462 191.248 56.5262 190.9 56.5508V63.961V63.959Z" fill="#211915"/>
<path d="M202.549 73.0355C201.713 73.0355 200.911 72.9432 200.087 72.9432L197.659 73.0007C195.742 70.493 194.104 67.8213 192.478 64.9773H191.003V70.1916C191.026 72.0636 191.782 72.0534 192.943 72.0759H193.501V73.0355H193.384C191.955 73.0355 190.503 72.9432 189.086 72.9432L185.461 73.0355H185.356V72.0759H185.914C186.808 72.0759 187.563 71.6822 187.575 70.8395V58.1925C187.563 56.423 186.691 56.4353 185.914 56.4127H185.356V55.4531H185.461L189.34 55.5454L193.372 55.4531C196.519 55.4531 199.424 56.3307 199.435 59.9395C199.435 62.1826 197.936 63.5933 196.008 64.3663L200.214 70.6324C200.911 71.672 201.342 71.9262 202.56 72.078H202.652V73.0376H202.547L202.549 73.0355ZM190.899 64.7579H192.607L192.642 64.8154C194.268 67.6819 195.918 70.3638 197.753 72.8264L200.099 72.7218L202.445 72.8141V72.2707C201.272 72.1313 200.726 71.7745 200.04 70.7452L195.684 64.2597L195.812 64.2125C197.764 63.4498 199.215 62.1191 199.215 59.923C199.215 56.4783 196.509 55.6684 193.372 55.6582L189.34 55.7504C187.866 55.7504 186.39 55.6582 185.566 55.6582V56.1892H185.914C186.693 56.1892 187.796 56.3164 187.796 58.1884V70.8354C187.796 71.8422 186.855 72.2912 185.914 72.2912H185.566V72.812L189.086 72.7197L193.279 72.812V72.2912H192.943C191.805 72.2912 190.782 72.1518 190.782 70.1875V64.7538H190.886H190.899V64.7579ZM190.899 64.0752H190.794V56.4558H190.886C191.223 56.4209 191.561 56.3512 192.326 56.3512C194.602 56.3512 196.09 57.8193 196.09 60.0973C196.09 63.0684 194.651 64.0854 192.129 64.0854H190.909L190.897 64.0731L190.899 64.0752ZM192.119 63.8681C194.594 63.8455 195.848 62.9905 195.859 60.0994C195.846 57.9259 194.487 56.5727 192.316 56.5624C191.641 56.5624 191.327 56.6198 191.003 56.6547V63.8681H192.119ZM219.519 68.0304L219.566 67.9833V58.6538C219.566 56.6198 218.137 56.3184 217.394 56.3184H216.837V55.5679L220.345 55.6725L223.423 55.5679V56.3184H223.051C221.993 56.3184 220.821 56.5152 220.821 59.474V70.8026C220.821 71.6699 220.843 72.5373 220.96 73.3103H220.019L207.136 59.0209V69.275C207.136 71.4485 207.567 72.1887 209.494 72.1887H209.925V72.9391C208.844 72.9391 207.763 72.8469 206.695 72.8469L203.292 72.9391V72.1887H203.64C205.371 72.1887 205.893 71.022 205.893 69.0331V58.5472C205.893 57.1488 204.743 56.3164 203.618 56.3164H203.292V55.5659L206.16 55.6705L208.391 55.5659L219.519 68.0407V68.0304Z" fill="#211915"/>
<path d="M220.972 73.4157L219.948 73.3809L207.252 59.3006V69.278C207.287 71.4514 207.613 72.0645 209.493 72.0871H210.028V73.0466H209.924C208.843 73.0466 207.763 72.9421 206.694 72.9421L203.291 73.0466H203.174V72.0871H203.639C205.288 72.0871 205.766 71.0229 205.788 69.0237V58.5502C205.788 57.2215 204.695 56.4239 203.627 56.4116H203.186V55.452H203.303L206.172 55.5442L208.472 55.4745L219.473 67.7873V58.6322C219.473 56.6556 218.136 56.4116 217.406 56.4013H216.744V55.4417H216.848L220.356 55.534L223.434 55.4417H223.539V56.4013H223.063C222.03 56.4239 220.961 56.5284 220.937 59.4523V70.7809C220.937 71.6483 220.959 72.5033 221.088 73.2783V73.4055H220.984L220.972 73.4157ZM220.03 73.1963H220.844C220.74 72.4561 220.717 71.6237 220.717 70.7912V59.4626C220.717 56.4792 221.984 56.2024 223.053 56.1901H223.309V55.6591L220.346 55.7513C219.196 55.7513 218.08 55.6591 216.955 55.6591V56.1901H217.396C218.162 56.1901 219.684 56.5264 219.684 58.6404L219.649 68.0498L219.602 68.0969L219.52 68.1769L208.392 55.657L206.161 55.7493C205.232 55.7493 204.304 55.657 203.397 55.657V56.1881H203.619C204.792 56.1881 205.999 57.0779 205.999 58.5358V69.0094C205.999 71.0085 205.429 72.2818 203.641 72.2818H203.397V72.8026L206.696 72.7104L209.821 72.8026V72.2818H209.508C207.545 72.2818 207.045 71.4268 207.045 69.2534V58.7224L220.043 73.1738L220.03 73.1963ZM227.455 69.3682C227.199 70.213 226.897 70.8711 226.897 71.3099C226.897 72.0604 227.955 72.1773 228.78 72.1773H229.058V72.9277L226.026 72.8355L223.332 72.9277V72.1773H223.483C224.459 72.1773 225.284 71.599 225.655 70.5595L229.663 59.1386C229.989 58.2139 230.442 56.9775 230.592 56.0527C231.394 55.7862 232.392 55.29 232.868 54.9886C232.95 54.966 232.985 54.9414 233.065 54.9414C233.145 54.9414 233.192 54.9414 233.239 55.0111L233.471 55.6344L238.07 68.6526L238.989 71.1951C239.29 71.8882 239.813 72.1773 240.637 72.1773H240.789V72.9277L237.338 72.8355L233.586 72.9277V72.1773H233.865C234.435 72.1773 235.409 72.085 235.409 71.4596C235.409 71.1357 235.187 70.4652 234.908 69.6676L233.932 66.7765H228.253L227.463 69.3661H227.451L227.455 69.3682ZM231.103 58.339H231.055L228.732 65.3801H233.401L231.101 58.339H231.103Z" fill="#211915"/>
<path d="M240.766 73.0356L237.328 72.931L233.575 73.0356H233.458V72.931V72.076H233.842C234.422 72.076 235.271 71.9489 235.271 71.4752C235.271 71.1861 235.062 70.5033 234.783 69.718L233.83 66.8966H228.312L227.533 69.4043C227.276 70.2593 226.987 70.9196 226.987 71.3112C226.987 71.912 227.928 72.0616 228.765 72.0616H229.148V73.0335H229.032L226.011 72.9187L223.317 73.0233H223.2V72.9187V72.0637H223.456C224.385 72.0637 225.165 71.5326 225.523 70.5259L229.532 59.105L230.52 55.9494C231.299 55.6829 232.308 55.1743 232.796 54.875C232.866 54.8524 232.936 54.8176 233.04 54.8176C233.098 54.8176 233.237 54.8299 233.307 54.9673L233.538 55.5906L238.15 68.6087L239.068 71.1287C239.36 71.7992 239.823 72.0534 240.625 72.0534H240.881V73.0253H240.764V73.0376L240.766 73.0356ZM233.68 72.8162L237.328 72.7239L240.662 72.8162V72.2954H240.627C239.768 72.2954 239.187 71.9591 238.874 71.2312C238.548 70.4808 238.246 69.554 237.955 68.6887L233.356 55.6705C233.274 55.4737 233.204 55.242 233.147 55.0698C233.147 55.0698 233.134 55.0472 233.112 55.0472H233.065C233.065 55.0472 232.983 55.0595 232.925 55.0821C232.228 55.5082 231.478 55.8425 230.694 56.0765C230.543 57.0238 230.09 58.2623 229.766 59.187L225.769 70.6079C225.386 71.6946 224.515 72.2954 223.493 72.2954H223.459V72.8162L226.048 72.7239L228.964 72.8162V72.2954H228.802C227.988 72.2954 226.85 72.2031 226.815 71.3132C226.815 70.817 227.117 70.1793 227.373 69.3366L228.197 66.6772H234.028L235.027 69.636C235.306 70.4336 235.538 71.1041 235.538 71.4629C235.503 72.2257 234.445 72.2831 233.889 72.2954H233.715V72.8162H233.68ZM228.568 65.4982L230.961 58.2377H231.1V58.3423H231.078L231.1 58.2377H231.17L233.54 65.4982H228.558H228.568ZM228.87 65.2788H233.249L231.078 58.6088L228.87 65.2788ZM241.882 56.8044C239.999 56.8044 239.93 57.2555 239.558 59.0702H238.804L239.105 56.9541C239.21 56.2611 239.257 55.5557 239.257 54.8381H239.862C240.059 55.5885 240.686 55.5557 241.361 55.5557H254.266C254.941 55.5557 255.568 55.5332 255.613 54.793L256.218 54.8975L255.952 56.909C255.894 57.5795 255.894 58.25 255.894 58.9205L255.15 59.1973C255.103 58.2725 254.976 56.8044 253.302 56.8044H249.202V70.042C249.202 71.9612 250.073 72.1806 251.281 72.1806H251.756V72.931C250.78 72.931 249.038 72.8387 247.678 72.8387L243.45 72.931V72.1806H243.926C245.308 72.1806 246.005 72.0657 246.005 70.0994V56.8044H241.904H241.882Z" fill="#211915"/>
<path d="M251.73 73.0366C250.754 73.0366 249.001 72.9444 247.652 72.9444L243.424 73.0366H243.319V72.077H243.9C245.282 72.0422 245.827 72.0299 245.862 70.1004V56.9101H241.878V56.703H246.083V70.1025C246.083 72.0914 245.282 72.2882 243.9 72.2985H243.529V72.8295L247.652 72.725L251.626 72.8295V72.2985H251.255C250.047 72.2985 249.083 72.0094 249.071 70.0451V56.6927H253.276C254.96 56.6927 255.169 58.1137 255.228 59.0404L255.774 58.8436L255.831 56.8895L256.087 54.9827L255.716 54.9129C255.599 55.6306 254.892 55.6757 254.265 55.6634H241.232C240.639 55.6634 240.012 55.6285 239.78 54.9355H239.374C239.374 55.6285 239.317 56.299 239.223 56.9593L238.944 58.9482H239.479C239.805 57.2135 240.024 56.6476 241.894 56.6825V56.8895C240.037 56.9244 240.082 57.2361 239.676 59.0753V59.1553H238.688V59.0281L239.014 56.9244C239.116 56.2279 239.167 55.5247 239.165 54.8207V54.7058H239.955L239.977 54.7858C240.151 55.4091 240.617 55.4214 241.255 55.4337H254.287C254.972 55.4214 255.485 55.4112 255.53 54.7633V54.6484L255.657 54.671L256.366 54.7858L256.344 54.8904L256.077 56.9019L256.03 58.9133V58.9933L255.948 59.0281L255.064 59.3521V59.2024C254.995 58.2654 254.902 56.9142 253.321 56.9142H249.325V70.0471C249.348 71.9315 250.104 72.0586 251.287 72.0811H251.868V73.0407H251.763H251.728L251.73 73.0366ZM257.133 72.1816H257.482C258.388 72.1816 259.329 72.0668 259.329 70.7607V57.72C259.329 56.4262 258.388 56.299 257.482 56.299H257.133V55.5486L260.828 55.6531L264.755 55.5486V56.299H264.406C263.5 56.299 262.548 56.4139 262.548 57.72V70.7607C262.548 72.0545 263.502 72.1816 264.406 72.1816H264.755V72.9321C263.547 72.9321 262.048 72.8398 260.805 72.8398L257.123 72.9321V72.1816H257.133Z" fill="#211915"/>
<path d="M264.767 73.0365C263.559 73.0365 262.06 72.932 260.817 72.932L257.135 73.0365H257.03V72.0769H257.483C258.39 72.0646 259.214 71.9847 259.226 70.7585V57.7178C259.226 56.504 258.39 56.424 257.483 56.3994H257.03V55.4398H257.135L260.83 55.5321L264.756 55.4398H264.861V56.3994H264.408C263.489 56.4117 262.665 56.504 262.665 57.7178V70.7585C262.665 71.9724 263.501 72.0523 264.408 72.0769H264.861V73.0365H264.756H264.767ZM264.65 72.8171V72.2963H264.418C263.524 72.2963 262.456 72.1343 262.456 70.7708V57.7301C262.456 56.3543 263.524 56.2046 264.418 56.2046H264.65V55.6735L260.828 55.7658C259.643 55.7658 258.203 55.6735 257.237 55.6735V56.2046H257.481C258.375 56.2046 259.444 56.3543 259.444 57.7301V70.7708C259.444 72.1467 258.375 72.2963 257.481 72.2963H257.237V72.8171L260.803 72.7249L264.637 72.8171H264.65ZM274.734 55.1855C280.065 55.1855 284.317 58.4683 284.317 63.7748C284.317 69.4975 280.194 73.301 274.861 73.301C269.528 73.301 265.509 69.7169 265.509 64.3653C265.509 59.0137 269.53 55.1855 274.734 55.1855ZM275.105 72.2143C279.96 72.2143 280.809 67.9597 280.809 64.3304C280.809 60.7012 278.834 56.2846 274.686 56.2846C270.307 56.2846 269.007 60.1681 269.007 63.498C269.007 67.9597 271.051 72.2143 275.105 72.2143Z" fill="#211915"/>
<path d="M265.394 64.3629C265.406 59.1261 269.472 55.0807 274.733 55.0684V55.2878C269.587 55.2878 265.603 59.241 265.603 64.3629C265.603 69.6571 269.599 73.1839 274.86 73.1839C280.134 73.1839 284.2 69.4275 284.212 63.7622C284.212 58.5254 280.019 55.2878 274.733 55.2878V55.0684C280.099 55.0684 284.409 58.3982 284.421 63.7622C284.421 69.5423 280.239 73.393 274.86 73.4032C269.517 73.3909 265.404 69.7617 265.394 64.3506V64.3629ZM268.89 63.4853C268.89 60.1452 270.214 56.1551 274.674 56.1551C278.926 56.1551 280.901 60.6517 280.911 64.3178C280.911 67.9471 280.052 72.3063 275.102 72.3063V72.0992C279.865 72.0992 280.677 67.9491 280.702 64.3199C280.702 60.7132 278.75 56.3888 274.684 56.3888C270.397 56.3888 269.119 60.1801 269.119 63.4977C269.119 67.9368 271.151 72.0992 275.113 72.1094V72.3165C270.965 72.3165 268.91 67.9819 268.898 63.4956L268.885 63.4833L268.89 63.4853ZM301.171 68.027L301.219 67.9799V58.6504C301.219 56.6164 299.789 56.315 299.035 56.315H298.5V55.5646L301.996 55.6691L305.073 55.5646V56.315H304.702C303.644 56.315 302.471 56.5119 302.471 59.4706V70.7992C302.471 71.6665 302.506 72.5339 302.623 73.3069H301.67L288.787 59.0175V69.2716C288.787 71.4451 289.205 72.1853 291.145 72.1853H291.575V72.9358C290.495 72.9358 289.427 72.8435 288.346 72.8435L284.942 72.9358V72.1853H285.291C287.021 72.1853 287.532 71.0186 287.532 69.0297V58.5438C287.532 57.1454 286.382 56.313 285.256 56.313H284.93V55.5625L287.811 55.6671L290.029 55.5625L301.169 68.0373V68.025L301.171 68.027Z" fill="#211915"/>
<path d="M302.61 73.4176L301.577 73.3827L288.891 59.3025V69.2798C288.926 71.4533 289.252 72.0541 291.132 72.0766H291.677V73.0485H291.561C290.48 73.0485 289.399 72.9562 288.331 72.9562L284.927 73.0485H284.823V72.0766H285.276C286.925 72.0766 287.402 71.0124 287.413 69.0358V58.55C287.413 57.2213 286.32 56.4237 285.241 56.4114H284.811V55.4518H284.915L287.796 55.544L290.107 55.4866L301.095 67.7994V58.6443C301.095 56.6677 299.758 56.4237 299.028 56.4134H298.378V55.4538H298.495L301.981 55.5461L305.071 55.4538H305.175V56.4134H304.7C303.676 56.4483 302.608 56.5405 302.586 59.4644V70.793C302.586 71.6604 302.608 72.5277 302.725 73.2905L302.748 73.4176H302.631H302.608H302.61ZM301.657 73.1982H302.481C302.364 72.4477 302.354 71.6255 302.354 70.793V59.4644C302.354 56.4708 303.621 56.2043 304.689 56.192H304.956V55.6609L301.971 55.7532C300.843 55.7532 299.717 55.6609 298.589 55.6609V56.192H299.02C299.799 56.192 301.308 56.5385 301.308 58.6422L301.273 68.0516L301.226 68.0988L301.144 68.1787L290.004 55.6589L287.786 55.7511C286.867 55.7511 285.916 55.6589 285.022 55.6589V56.1899H285.243C286.416 56.1899 287.624 57.0798 287.624 58.5377V69.0235C287.624 71.0124 287.066 72.2837 285.266 72.296H285.022V72.8168L288.321 72.7245L291.433 72.8168V72.296H291.107C289.145 72.296 288.657 71.441 288.657 69.2675V58.7365L301.645 73.1879L301.657 73.1982ZM309.094 69.3721C308.85 70.2169 308.548 70.8751 308.548 71.3138C308.548 72.0643 309.606 72.1812 310.418 72.1812H310.697V72.9316L307.665 72.8394L304.97 72.9316V72.1812H305.11C306.086 72.1812 306.922 71.603 307.293 70.5634L311.302 59.1425C311.628 58.2178 312.069 56.9814 312.221 56.0566C313.022 55.7901 314.021 55.2939 314.497 54.9925C314.579 54.9699 314.624 54.9453 314.693 54.9453C314.763 54.9453 314.81 54.9453 314.868 55.015L315.099 55.6384L319.699 68.6565L320.627 71.199C320.929 71.8921 321.452 72.1812 322.276 72.1812H322.428V72.9316L318.977 72.8394L315.224 72.9316V72.1812H315.503C316.073 72.1812 317.06 72.0889 317.06 71.4635C317.06 71.1396 316.828 70.4691 316.559 69.6715L315.583 66.7804H309.914L309.1 69.37H309.088L309.094 69.3721ZM312.741 58.3429H312.694L310.371 65.384H315.052L312.741 58.3429Z" fill="#211915"/>
<path d="M322.417 73.0351L318.979 72.9428L315.227 73.0351H315.11V72.9305V72.0755H315.493C316.073 72.0755 316.933 71.9361 316.945 71.4624C316.945 71.1733 316.723 70.5028 316.445 69.7052L315.491 66.8838H309.973L309.207 69.3915C308.963 70.2465 308.649 70.9068 308.661 71.2984C308.661 71.9115 309.602 72.0612 310.427 72.0612H310.81V73.0331H310.693L307.673 72.9285L304.979 73.0208H304.874V72.9162V72.0612H305.118C306.047 72.0612 306.836 71.5178 307.197 70.511L311.206 59.0902L312.194 55.9346C312.985 55.6493 313.747 55.2895 314.47 54.8601C314.54 54.8376 314.609 54.8027 314.714 54.8027C314.771 54.8027 314.911 54.815 314.993 54.9524L315.214 55.5757L319.813 68.5939L320.742 71.1262C321.033 71.7843 321.487 72.0509 322.286 72.0632H322.543V73.0351H322.426H322.413H322.417ZM315.331 72.8157L318.979 72.7234L322.313 72.8157V72.2949H322.278C321.429 72.2949 320.839 71.9586 320.525 71.2307C320.189 70.4803 319.897 69.5535 319.596 68.6882L314.997 55.6701L314.776 55.0795C314.776 55.0795 314.753 55.0447 314.741 55.0447H314.694C314.694 55.0447 314.612 55.057 314.542 55.0795C314.054 55.381 313.068 55.8895 312.311 56.074C312.159 57.0213 311.706 58.2598 311.392 59.1845L307.384 70.6054C307 71.6921 306.141 72.2929 305.108 72.2929H305.073V72.8137L307.675 72.7214L310.603 72.8137V72.2929H310.429C309.615 72.2929 308.477 72.2006 308.442 71.3107C308.442 70.8145 308.755 70.1768 308.999 69.3464L309.824 66.687H315.655L316.654 69.6458C316.933 70.4434 317.154 71.1139 317.154 71.4727C317.119 72.2354 316.073 72.2929 315.493 72.3052H315.331V72.826V72.8157ZM310.219 65.4854L312.625 58.2372H312.742V58.3418H312.719L312.742 58.2372H312.824L315.194 65.4854H310.219ZM310.521 65.2783H314.901L312.717 58.6186L310.521 65.2783ZM328.725 70.4905C328.725 71.485 329.422 71.7843 330.223 71.8889C331.247 71.9689 332.372 71.9689 333.535 71.8418C334.581 71.7269 335.487 71.1241 335.928 70.5008C336.323 69.9451 336.543 69.2521 336.707 68.7087H337.427L336.498 72.9408C334.302 72.9408 332.095 72.8485 329.899 72.8485L323.289 72.9408V72.1903H323.637C324.544 72.1903 325.52 72.0755 325.52 70.5254V57.7389C325.52 56.4451 324.544 56.318 323.637 56.318H323.289V55.5675L327.238 55.6721L331.048 55.5675V56.318H330.42C329.479 56.318 328.725 56.3406 328.725 57.659V70.5028V70.4905Z" fill="#211915"/>
<path d="M336.495 73.0354C334.289 73.0354 332.093 72.9431 329.897 72.9431L323.286 73.0354H323.182V72.0758H323.635C324.541 72.0532 325.4 71.9958 325.413 70.5154V57.7187C325.413 56.5049 324.553 56.4249 323.635 56.4126H323.182V55.453H323.286L327.235 55.5453L331.045 55.453H331.137V56.4126H330.405C329.442 56.4351 328.826 56.4003 328.814 57.6613V70.5051C328.826 71.4299 329.429 71.6841 330.221 71.799L331.603 71.8461L333.508 71.7539C334.518 71.6267 335.4 71.0485 335.831 70.46C336.214 69.929 336.436 69.2462 336.585 68.7028L336.608 68.6229H337.549L337.526 68.7623L336.598 72.9944L336.575 73.0743H336.493V73.0395L336.495 73.0354ZM336.413 72.816L337.297 68.8054H336.786C336.634 69.3487 336.415 70.0192 336.019 70.5626C335.554 71.2105 334.625 71.8236 333.544 71.9507C332.908 72.019 332.268 72.0539 331.627 72.0553C331.152 72.0553 330.664 72.0327 330.221 72.0081C329.407 71.9158 328.617 71.5693 328.63 70.5051V57.6613C328.63 56.2732 329.501 56.2055 330.442 56.2055H330.965V55.6744L327.27 55.7667C325.968 55.7667 324.703 55.6744 323.426 55.6744V56.2055H323.67C324.564 56.2055 325.657 56.3552 325.657 57.731V70.5277C325.657 72.1352 324.564 72.3075 323.67 72.3075H323.426V72.8283L329.932 72.736L336.438 72.8283L336.415 72.816H336.413ZM337.122 54.8502C337.47 54.843 337.815 54.9058 338.137 55.035C338.46 55.1642 338.753 55.357 338.999 55.602C339.245 55.847 339.439 56.1391 339.57 56.4609C339.7 56.7827 339.765 57.1275 339.759 57.4747C339.759 58.9428 338.632 60.087 337.122 60.087C335.613 60.087 334.486 58.9428 334.486 57.4747C334.48 57.1275 334.545 56.7827 334.675 56.4609C334.806 56.1391 335 55.847 335.246 55.602C335.492 55.357 335.785 55.1642 336.108 55.035C336.43 54.9058 336.775 54.843 337.122 54.8502ZM337.122 59.601C338.295 59.601 339.202 58.6065 339.202 57.4747C339.202 56.3429 338.318 55.3361 337.122 55.3361C335.927 55.3361 335.031 56.3429 335.031 57.4747C335.031 58.6065 335.937 59.601 337.122 59.601ZM335.81 58.8608V58.7337C336.136 58.6865 336.194 58.6988 336.194 58.502V56.5602C336.194 56.2834 336.159 56.1911 335.823 56.2137V56.0743H337.17C337.623 56.0743 338.053 56.2937 338.053 56.7673C338.053 57.161 337.797 57.4501 337.426 57.5649L337.857 58.1657C338.066 58.4323 338.287 58.6865 338.437 58.7788V58.8587H337.926C337.682 58.8587 337.473 58.3379 336.985 57.6572H336.694V58.5245C336.694 58.6988 336.751 58.6865 337.077 58.7316V58.8587L335.81 58.8608ZM336.704 57.4727H337.006C337.342 57.4727 337.506 57.2184 337.506 56.8022C337.506 56.3859 337.262 56.2363 336.995 56.2363H336.704V57.4624V57.4747V57.4727Z" fill="#211915"/>
<path d="M59.0412 0.016916H62.2234C61.1429 -0.00563867 60.0869 -0.00563867 59.0412 0.016916ZM62.2234 87H57.2061H62.2132H62.2255H62.2234Z" fill="#BA007C"/>
<path d="M55.8462 3.61328C33.7528 3.61328 15.8506 21.4397 15.8506 43.4284C15.8506 65.4172 33.7508 83.2312 55.8462 83.2312C77.9415 83.2312 95.8417 65.4172 95.852 43.4284C95.852 21.4397 77.9395 3.62558 55.8462 3.61328ZM46.7628 66.9775C37.2488 63.336 30.5111 54.1808 30.4886 43.4284C30.5111 32.678 37.2611 23.5208 46.7628 19.8793V66.9775ZM64.9193 66.9775V19.8772C74.4332 23.5065 81.1935 32.6862 81.2058 43.4264C81.1935 54.1767 74.4332 63.3483 64.9193 66.9775Z" fill="white"/>
<path d="M112.221 50.374L112.303 49.8881C112.609 47.8367 112.768 45.7659 112.778 43.6917C112.756 38.213 111.755 33.091 109.979 28.4201C103.519 12.027 86.3032 0.501575 62.223 0.015625H59.0408C42.906 0.339592 30.9295 5.63379 23.0661 13.8416C16.4781 20.9299 12.2727 30.3968 11.7272 41.4383V41.6577L11.6924 42.5927V42.8818V43.8065V44.0382L11.7047 44.9855C12.0656 58.627 18.9755 70.7532 29.4203 78.43C36.6214 83.4351 45.9386 86.603 57.2302 86.9967H62.2476C80.0904 86.361 94.0415 80.0826 102.731 70.337C107.552 64.6716 110.943 57.8745 112.223 50.4643C112.223 50.4294 112.223 50.4068 112.235 50.372H112.223L112.221 50.374ZM55.8462 83.2403C33.7529 83.2403 15.8506 65.4262 15.8506 43.4375C15.8506 21.4487 33.7508 3.63462 55.8462 3.62232C77.9395 3.62232 95.8418 21.4487 95.852 43.4375C95.852 65.4262 77.9395 83.2403 55.8462 83.2403ZM64.9193 19.876V66.9845C74.4333 63.343 81.1936 54.1878 81.2059 43.4354C81.1936 32.685 74.4333 23.5155 64.9193 19.8863V19.874V19.876ZM30.4866 43.4252C30.5091 54.1755 37.2591 63.3327 46.7608 66.9743V19.8883C37.2468 23.5299 30.5091 32.685 30.4866 43.4375V43.4252Z" fill="#004C97"/>
</svg>
