<svg width="457" height="87" viewBox="0 0 457 87" fill="none" xmlns="http://www.w3.org/2000/svg">
<path fill-rule="evenodd" clip-rule="evenodd" d="M178.379 33.5579C185.259 35.748 189.5 40.4963 191.17 47.2122C192.768 53.6326 190.99 59.785 186.999 64.6832C181.732 71.1357 168.573 73.9981 160.411 67.705L160.113 70.2678H151.295V57.9811V26.9602C151.295 21.4575 155.938 17 161.66 17V36.166C165.447 32.7127 172.133 31.5268 178.379 33.5579ZM172.398 61.9661C176.658 61.5027 179.523 59.0944 180.767 55.1914C182.507 48.8116 178.781 40.9462 168.998 41.9095C164.199 42.6138 161.896 46.0353 161.896 46.0353V57.9766C164.615 61.1619 168.369 62.407 172.398 61.9661ZM38.6967 26.56H28.6299C25.1734 26.56 22.3648 29.2545 22.3648 32.576V38.3831H34.0581V47.8616H22.3648V71.04C22.3648 76.5424 17.7214 81 12 81V33.0077C12 24.2108 19.4189 17.0815 28.5731 17.0815H38.6967V26.56ZM97.8165 70.3488H87.4517V27.0595C87.4517 21.5569 92.0952 17.0994 97.8165 17.0994V70.3488ZM253.363 70.3488H242.998V27.0595C242.998 21.5569 247.641 17.0994 253.363 17.0994V70.3488ZM260.408 70.3488H270.773V17.0994C265.051 17.0994 260.408 21.5569 260.408 27.0595V70.3488ZM218.037 71.3082C202.433 71.3082 195.964 60.889 196.612 50.2474C197.118 41.9774 203.738 32.5625 217.408 32.5625C232.874 32.5625 239.083 46.0351 236.832 56.009H207.776C208.358 59.753 212.135 62.3341 217.228 62.6611C223.332 63.0518 227.267 58.649 227.267 58.649L235.139 62.6429C231.295 68.7907 225.181 71.3082 218.037 71.3082ZM217.389 41.2186C210.055 41.1732 207.814 47.1574 207.852 48.8614H226.59C226.761 47.3619 225.262 41.264 217.389 41.2186ZM80.4963 34.4944C78.1697 34.4944 76.0373 35.2715 74.3587 36.5574C69.2614 33.0222 61.8045 31.182 53.5725 33.8583C46.735 36.0348 42.5174 40.7559 40.8577 47.4308C39.269 53.815 41.0374 59.9357 45.0046 64.793C50.2248 71.1818 63.2186 74.0307 71.3371 67.8781L72.1553 70.3501H80.5008V43.7639L80.4963 34.4944ZM70.2593 58.3587C67.3417 61.5987 63.5259 62.3347 59.5162 61.8986C55.2841 61.4352 52.433 59.2496 51.194 55.3645C49.4636 49.0256 53.1705 41.0013 62.8921 41.96C68.2354 42.7552 70.2544 46.4902 70.2544 46.4902V58.3587H70.2593ZM311.716 36.5659C313.395 35.2755 315.528 34.503 317.854 34.503H317.859V43.7725V70.3587H309.513L308.695 67.8867C300.576 74.039 287.583 71.1901 282.362 64.8016C278.395 59.944 276.627 53.8234 278.216 47.4394C279.875 40.7644 284.093 36.0434 290.93 33.8668C299.162 31.1905 306.619 33.0308 311.716 36.5659ZM296.874 61.9072C300.884 62.3434 304.7 61.607 307.617 58.3674H307.612V46.4988C307.612 46.4988 305.593 42.7638 300.25 41.9686C290.528 41.0098 286.821 49.0342 288.552 55.3731C289.791 59.2579 292.642 61.4435 296.874 61.9072ZM138.192 36.5574C133.095 33.0222 125.638 31.182 117.406 33.8583C110.569 36.0348 106.351 40.7559 104.691 47.4308C103.102 53.815 104.871 59.9357 108.838 64.793C114.058 71.1818 127.052 74.0307 135.171 67.8781L135.989 70.3501H144.335V43.7639V34.4899C142.003 34.4944 139.876 35.2669 138.192 36.5574ZM134.093 58.3587C131.175 61.5987 127.359 62.3347 123.35 61.8986C119.118 61.4352 116.266 59.2496 115.028 55.3645C113.297 49.0256 117.004 41.0013 126.726 41.96C132.069 42.7552 134.088 46.4902 134.088 46.4902V58.3587H134.093ZM362.401 54.9734C362.401 46.2447 369.332 39.6561 378.525 39.6561C387.748 39.6561 394.705 46.2402 394.711 54.9734C394.711 63.743 387.748 70.3501 378.525 70.3501C369.332 70.3501 362.401 63.743 362.401 54.9734ZM370.709 54.969C370.709 59.5901 373.99 62.9434 378.519 62.9434C383.012 62.9434 386.403 59.5174 386.403 54.969C386.403 50.4614 383.015 47.0626 378.519 47.0626C374.065 47.0626 370.709 50.4614 370.709 54.969ZM432.912 39.6563C428.15 39.3064 424.078 41.6783 421.809 43.0278C419.202 41.0104 416.301 39.6563 412.589 39.6563C405.675 39.6563 398.621 43.6458 398.621 43.6458V69.655H406.686V48.0943C407.986 47.19 410.336 47.0674 411.652 47.0674C414.408 47.0674 417.624 49.144 417.624 52.6518V69.655H425.689V50.6979C425.689 49.1712 425.255 48.3941 425.255 48.3941C430.636 45.5088 436.935 47.708 436.935 52.6518V69.655H445V52.5338C444.997 44.2184 438.306 40.0516 432.912 39.6563ZM348.442 47.0623C344.614 47.0623 341.378 50.1747 340.749 53.7325C338.717 51.8288 336.044 50.552 333.07 50.2112C335.127 43.9542 341.213 39.6512 348.805 39.6512C355.548 39.6512 360.193 43.2818 360.193 43.2818L356.07 49.5069C356.07 49.5069 352.929 47.0623 348.442 47.0623ZM356.287 60.3251C356.287 60.3251 353.198 62.9379 348.445 62.9379C347.103 62.9379 345.836 62.5517 344.727 61.8973C344.75 62.2154 344.769 62.5334 344.769 62.856C344.769 65.2461 344.082 67.4816 342.892 69.3946C344.717 70.0125 346.708 70.3488 348.815 70.3488C356.368 70.3488 360.605 66.1459 360.605 66.1459L356.287 60.3251ZM338.928 62.8611C338.928 66.7984 335.607 69.9904 331.51 69.9904C327.412 69.9904 324.091 66.7984 324.091 62.8611C324.091 58.9238 327.412 55.7318 331.51 55.7318C335.607 55.7318 338.928 58.9238 338.928 62.8611Z" fill="#AAD500"/>
</svg>
