<svg width="433" height="87" viewBox="0 0 433 87" fill="none" xmlns="http://www.w3.org/2000/svg">
<path fill-rule="evenodd" clip-rule="evenodd" d="M98.2783 20.3066H110.597V69.2632H98.2783V20.3066Z" fill="#1B8F43"/>
<path fill-rule="evenodd" clip-rule="evenodd" d="M117.688 34.2011H128.619V38.9894H128.824C131.46 35.208 134.87 33.1719 139.824 33.1719C147.62 33.1719 152.211 38.6538 152.211 46.4626V69.2628H140.87V48.7225C140.87 45.0306 138.983 42.5022 135.301 42.5022C131.551 42.5022 129.029 45.59 129.029 49.9084V69.2851H117.688V34.2011Z" fill="#1B8F43"/>
<path fill-rule="evenodd" clip-rule="evenodd" d="M158.3 20.3066H169.505V46.0603L180.073 34.2015H193.141L180.619 47.3581L194.596 69.2632H181.459L172.914 54.9431L169.505 58.5008V69.2409H158.3V20.3066Z" fill="#1B8F43"/>
<path fill-rule="evenodd" clip-rule="evenodd" d="M208.803 48.4329C201.416 49.395 195.166 51.7219 195.166 59.4637C195.166 66.3777 200.257 70.1589 207.348 70.1589C212.689 70.1589 215.826 68.3242 217.917 65.3706H218.053C218.326 67.1383 218.689 68.5033 219.235 69.264H230.235V68.7941C229.258 68.19 228.985 66.6238 228.985 63.8044V46.1283C228.985 41.7428 227.53 38.3193 224.462 36.1266C221.894 34.2023 218.28 33.2402 212.917 33.2402C202.143 33.2402 197.053 38.7892 196.78 45.3004H207.212C207.553 42.3469 209.371 40.7806 212.985 40.7806C216.394 40.7806 217.849 42.2797 217.849 44.5396C217.849 46.9337 215.485 47.605 208.803 48.4329ZM218.121 52.5498V56.7339C218.121 60.4931 215.212 63.0214 210.962 63.0438C208.189 63.0438 206.098 61.9474 206.098 59.1281C206.098 56.4655 207.894 55.3692 212.28 54.407C214.575 53.8476 216.666 53.2881 218.121 52.5498Z" fill="#1B8F43"/>
<path fill-rule="evenodd" clip-rule="evenodd" d="M238.098 41.3182H233.507V34.203H238.098V31.6746C238.098 28.0498 239.143 25.3649 241.007 23.5301C244.074 20.5766 249.985 19.9053 256.098 20.5095V28.3855C251.781 28.2512 249.418 28.5869 249.418 32.5025V34.2254H256.098V41.3405H249.418V69.287H238.075V41.3182H238.098Z" fill="#1B8F43"/>
<path fill-rule="evenodd" clip-rule="evenodd" d="M271.622 48.4329C264.237 49.395 257.986 51.7219 257.986 59.4637C257.986 66.3777 263.053 70.1589 270.145 70.1589C275.51 70.1589 278.622 68.3242 280.713 65.3706H280.851C281.123 67.1383 281.486 68.5033 282.032 69.264H293.033V68.7941C292.053 68.19 291.781 66.6238 291.781 63.8044V46.1283C291.781 41.7428 290.327 38.3193 287.259 36.1266C284.691 34.2023 281.076 33.2402 275.714 33.2402C264.939 33.2402 259.85 38.7892 259.577 45.3004H270.031C270.373 42.3469 272.19 40.7806 275.805 40.7806C279.213 40.7806 280.669 42.2797 280.669 44.5396C280.669 46.9337 278.303 47.605 271.622 48.4329ZM280.941 52.5498V56.7339C280.941 60.4931 278.008 63.0214 273.781 63.0438C271.008 63.0438 268.917 61.9474 268.917 59.1281C268.917 56.4655 270.713 55.3692 275.1 54.407C277.394 53.8476 279.485 53.2881 280.941 52.5498Z" fill="#1B8F43"/>
<path fill-rule="evenodd" clip-rule="evenodd" d="M298.259 34.1991H309.101V39.6809H309.306C311.804 35.4968 314.737 33.6621 319.032 33.6621C320.078 33.6621 320.76 33.7292 321.26 33.9306V43.507H320.988C314.033 42.5449 309.578 45.9011 309.578 53.5087V69.2608H298.235V34.1991H298.259Z" fill="#1B8F43"/>
<path fill-rule="evenodd" clip-rule="evenodd" d="M325.873 34.2011H336.715V39.1907H336.92C339.146 35.566 342.557 33.1719 347.693 33.1719C352.352 33.1719 355.897 35.566 357.716 39.3251H357.851C360.624 35.0737 364.465 33.1719 369.057 33.1719C377.124 33.1719 381.171 38.5865 381.171 46.4626V69.2628H369.829V48.454C369.829 44.6949 368.214 42.5022 364.83 42.5022C361.215 42.5022 359.193 45.4558 359.193 49.6176V69.2628H347.851V48.454C347.851 44.6949 346.26 42.5022 342.852 42.5022C339.307 42.5022 337.216 45.4558 337.216 49.6176V69.2628H325.873V34.2011Z" fill="#1B8F43"/>
<path fill-rule="evenodd" clip-rule="evenodd" d="M399.259 48.4329C391.874 49.395 385.623 51.7219 385.623 59.4637C385.623 66.3777 390.692 70.1589 397.805 70.1589C403.146 70.1589 406.282 68.3242 408.373 65.3706H408.511C408.783 67.1383 409.146 68.5033 409.692 69.264H420.693V68.7941C419.713 68.19 419.441 66.6238 419.441 63.8044V46.1283C419.441 41.7428 417.987 38.3193 414.919 36.1266C412.351 34.2023 408.736 33.2402 403.372 33.2402C392.599 33.2402 387.51 38.7892 387.237 45.3004H397.668C398.01 42.3469 399.827 40.7806 403.442 40.7806C406.85 40.7806 408.306 42.2797 408.306 44.5396C408.306 46.9337 405.942 47.605 399.259 48.4329ZM408.578 52.5498V56.7339C408.578 60.4931 405.645 63.0214 401.418 63.0438C398.645 63.0438 396.554 61.9474 396.554 59.1281C396.554 56.4655 398.35 55.3692 402.737 54.407C405.033 53.8476 407.124 53.2881 408.578 52.5498Z" fill="#1B8F43"/>
<path fill-rule="evenodd" clip-rule="evenodd" d="M78.0247 43.4791C78.0247 61.4434 63.2387 76 44.9911 76C26.7861 76 12 61.4434 12 43.4791C12 25.5146 26.7861 11.0001 44.9911 11.0001C63.2815 10.958 78.0247 25.5146 78.0247 43.4791Z" fill="#1B8F43"/>
<path fill-rule="evenodd" clip-rule="evenodd" d="M67.0408 36.2438H59.733V29.0077H52.3827V21.7715H37.6821V29.0077H30.3318V36.2438H22.9814V50.7165H30.3318V57.9526H37.6821V65.189H52.3827V57.9526H59.733V50.7165H67.0408V36.2438Z" fill="#FFF200"/>
<path fill-rule="evenodd" clip-rule="evenodd" d="M63.4089 39.8611H56.0585V32.6249H48.7082V25.3887H41.3579V32.6249H34.0075V39.8611H26.6572V47.0974H34.0075V54.3337H41.3579V61.5277H48.7082V54.3337H56.0585V47.0974H63.4089V39.8611Z" fill="white"/>
<path fill-rule="evenodd" clip-rule="evenodd" d="M56.0587 39.8611H48.7084V32.625H41.3581V39.8611H34.0078V47.0975H41.3581V54.3338H48.7084V47.0975H56.0587V39.8611Z" fill="#ED1C24"/>
</svg>
