<svg width="249" height="87" viewBox="0 0 249 87" fill="none" xmlns="http://www.w3.org/2000/svg">
<g clip-path="url(#clip0_5080_458)">
<path d="M12 70.3192V61.9592H14.71C16.07 61.9592 17.14 61.5492 17.91 60.7192C18.68 59.8992 19.07 58.8292 19.07 57.5192V18.4492H28.9V57.9492C28.9 61.7592 27.8 64.7792 25.61 66.9992C23.42 69.2192 20.39 70.3292 16.53 70.3292H12V70.3192Z" fill="#8A38C9"/>
<path d="M23.9798 12.95C22.2298 12.95 20.7098 12.3 19.4298 11.02C18.1498 9.74 17.5098 8.22 17.5098 6.47C17.5098 4.72 18.1498 3.2 19.4298 1.92C20.7098 0.64 22.2298 0 23.9798 0C25.7898 0 27.3198 0.64 28.5798 1.92C29.8398 3.21 30.4598 4.72 30.4598 6.47C30.4598 8.22 29.8398 9.74 28.5798 11.02C27.3198 12.3 25.7798 12.95 23.9798 12.95Z" fill="#8A38C9"/>
<path d="M55.9997 62.9892C51.7897 62.9892 48.1297 62.1492 44.9997 60.4692C41.8597 58.7892 39.4497 56.4792 37.7397 53.5192C36.0297 50.5592 35.1797 47.2392 35.1797 43.5392V18.4492H44.9997V43.4492C44.9997 45.6692 45.4897 47.6092 46.4897 49.2892C47.4797 50.9692 48.8197 52.2792 50.4997 53.2092C52.1797 54.1492 54.0097 54.6192 55.9997 54.6192C57.9897 54.6192 59.8297 54.1492 61.5097 53.2092C63.1897 52.2692 64.5197 50.9592 65.5197 49.2892C66.5097 47.6092 67.0097 45.6692 67.0097 43.4492V18.4492H76.8197V43.5392C76.8197 47.2392 75.9497 50.5592 74.2197 53.5192C72.4897 56.4792 70.0797 58.7892 66.9697 60.4692C63.8597 62.1492 60.2097 62.9892 55.9997 62.9892Z" fill="#8A38C9"/>
<path d="M83.1201 61.9597V36.8797C83.1201 33.1297 83.9701 29.7897 85.6801 26.8497C87.3901 23.9197 89.8001 21.6197 92.9301 19.9397C96.0501 18.2597 99.7301 17.4297 103.94 17.4297C108.15 17.4297 111.8 18.2697 114.9 19.9397C118 21.6197 120.4 23.9197 122.11 26.8497C123.82 29.7797 124.67 33.1197 124.67 36.8797V61.9697H114.94V36.9697C114.94 34.7597 114.42 32.8097 113.4 31.1297C112.38 29.4497 111.02 28.1397 109.35 27.2097C107.67 26.2697 105.84 25.7997 103.85 25.7997C101.91 25.7997 100.1 26.2697 98.4201 27.2097C96.7401 28.1497 95.4101 29.4597 94.4101 31.1297C93.4201 32.8097 92.9201 34.7597 92.9201 36.9697V61.9697H83.1201V61.9597Z" fill="#8A38C9"/>
<path d="M140.79 26.8193V49.1693C140.79 50.4793 141.18 51.5493 141.99 52.3693C142.78 53.1893 143.83 53.5993 145.15 53.5993H153.4V61.9593H143.35C139.49 61.9593 136.46 60.8493 134.27 58.6293C132.08 56.4093 130.98 53.3993 130.98 49.5793V7.5293H140.8V18.4493H153.4V26.8093L140.79 26.8193Z" fill="#8A38C9"/>
<path d="M237.08 26.8195L214.3 53.5994H237.08V61.9594H209.98C206.61 61.9294 204.43 60.6394 203.41 58.0994C202.41 55.5494 202.83 53.0995 204.73 50.7195L225.67 26.7995H202.87V18.4395H237.09L237.08 26.8195Z" fill="#8A38C9"/>
<path d="M195.83 21.7792C193.64 19.5592 190.61 18.4492 186.75 18.4492H169.94C166.08 18.4492 163.05 19.5592 160.86 21.7792C158.67 23.9992 157.57 27.0092 157.57 30.8292V49.5992C157.57 53.4092 158.68 56.4192 160.86 58.6492C163.05 60.8692 166.08 61.9792 169.94 61.9792H186.75C190.61 61.9792 193.64 60.8692 195.83 58.6492C198.02 56.4292 199.12 53.4192 199.12 49.5992V30.8192C199.12 27.0092 198.02 23.9992 195.83 21.7792ZM189.3 53.5992H167.39V26.8192H189.3V53.5992Z" fill="#8A38C9"/>
<path d="M89.6704 86.8884V72.0284H85.1504V70.3184H96.0404V72.0284H91.5204V86.8884H89.6704Z" fill="#8A38C9"/>
<path d="M97.0107 74.9082H98.7707V82.0882C98.7707 84.3482 100.011 85.5382 102.031 85.5382C104.051 85.5382 105.311 84.3282 105.311 82.0682V74.9082H107.071V82.0882C107.071 85.3182 105.001 87.1782 101.961 87.1782C99.0107 87.1782 97.0107 85.3982 97.0107 82.2582V74.9082Z" fill="#8A38C9"/>
<path d="M119.431 86.8887V74.9088H121.191V76.9287C121.761 75.5987 122.951 74.7188 124.571 74.7188C126.281 74.7188 127.451 75.4987 128.091 77.0987C128.831 75.5087 130.111 74.7188 131.921 74.7188C134.371 74.7188 135.911 76.4987 135.911 79.2387V86.8988H134.151V79.6188C134.151 77.6188 133.151 76.3587 131.441 76.3587C129.731 76.3587 128.491 77.7387 128.491 79.7387V86.8988H126.731V79.6188C126.731 77.5988 125.751 76.3587 124.071 76.3587C122.431 76.3587 121.191 77.7387 121.191 79.7387V86.8988H119.431V86.8887Z" fill="#8A38C9"/>
<path d="M148.291 76.6888V74.9088H150.051V86.8888H148.291V85.1088C147.601 86.3188 146.201 87.2488 144.031 87.2488C142.341 87.2488 140.891 86.6588 139.731 85.4388C138.561 84.2288 137.971 82.7088 137.971 80.8988C137.971 79.0888 138.561 77.5888 139.731 76.3788C140.901 75.1688 142.351 74.5488 144.031 74.5488C146.201 74.5488 147.601 75.4788 148.291 76.6888ZM147.221 84.2788C148.081 83.3788 148.501 82.2588 148.501 80.8988C148.501 79.5388 148.071 78.4288 147.221 77.5488C146.391 76.6488 145.321 76.1888 144.031 76.1888C142.791 76.1888 141.771 76.6388 140.941 77.5488C140.131 78.4288 139.731 79.5488 139.731 80.8988C139.731 82.2488 140.131 83.3688 140.941 84.2788C141.771 85.1588 142.791 85.6088 144.031 85.6088C145.321 85.6088 146.391 85.1588 147.221 84.2788Z" fill="#8A38C9"/>
<path d="M152.761 86.8884V70.3184H154.521V86.8884H152.761Z" fill="#8A38C9"/>
<path d="M157.28 86.8884V70.3184H159.04V86.8884H157.28Z" fill="#8A38C9"/>
<path d="M181.81 76.4088C183.12 77.6188 183.76 79.1188 183.76 80.8988C183.76 82.6788 183.12 84.1788 181.81 85.4188C180.5 86.6288 178.93 87.2488 177.1 87.2488C175.24 87.2488 173.68 86.6288 172.37 85.4188C171.09 84.1788 170.44 82.6888 170.44 80.8988C170.44 79.1088 171.08 77.6188 172.37 76.4088C173.68 75.1688 175.25 74.5488 177.1 74.5488C178.93 74.5488 180.5 75.1688 181.81 76.4088ZM174.89 83.1388C175.48 83.7288 176.22 84.0388 177.1 84.0388C177.98 84.0388 178.72 83.7288 179.31 83.1388C179.9 82.5188 180.21 81.7788 180.21 80.8988C180.21 80.0188 179.9 79.2788 179.31 78.6888C178.72 78.0688 177.98 77.7588 177.1 77.7588C176.22 77.7588 175.48 78.0688 174.89 78.6888C174.3 79.2788 173.99 80.0188 173.99 80.8988C173.99 81.7788 174.3 82.5388 174.89 83.1388Z" fill="#8A38C9"/>
<path d="M185.61 86.8884V74.9084H189.15V76.4084C189.65 75.3584 191.01 74.6484 192.65 74.6484C195.57 74.6484 197.24 76.5084 197.24 79.6184V86.8984H193.7V80.0484C193.7 78.6484 192.92 77.7884 191.51 77.7884C190.16 77.7884 189.16 78.7684 189.16 80.1684V86.8984H185.61V86.8884Z" fill="#8A38C9"/>
<path d="M199.5 86.8884V70.3184H203.04V86.8884H199.5Z" fill="#8A38C9"/>
<path d="M207.17 69.8691C208.29 69.8691 209.19 70.7491 209.19 71.8891C209.19 73.0091 208.29 73.8891 207.17 73.8891C206.05 73.8891 205.15 73.0091 205.15 71.8891C205.15 70.7491 206.06 69.8691 207.17 69.8691ZM205.42 86.8891V74.9091H208.96V86.8891H205.42Z" fill="#8A38C9"/>
<path d="M211.33 86.8884V74.9084H214.87V76.4084C215.37 75.3584 216.73 74.6484 218.37 74.6484C221.29 74.6484 222.96 76.5084 222.96 79.6184V86.8984H219.42V80.0484C219.42 78.6484 218.64 77.7884 217.23 77.7884C215.88 77.7884 214.88 78.7684 214.88 80.1684V86.8984H211.33V86.8884Z" fill="#8A38C9"/>
<path d="M224.7 80.8791C224.7 78.9991 225.29 77.4991 226.48 76.3591C227.69 75.1891 229.21 74.6191 231.05 74.6191C232.83 74.6191 234.31 75.2091 235.43 76.3791C236.55 77.5391 237.12 78.9691 237.12 80.6791C237.12 81.0791 237.1 81.4891 237.05 81.8491H228.25C228.32 83.2791 229.53 84.1791 231.41 84.1791C233.12 84.1791 234.55 83.7991 235.67 83.0091V86.0991C234.53 86.8391 233.05 87.1891 231.22 87.1891C229.27 87.1891 227.7 86.6191 226.49 85.4991C225.3 84.3591 224.71 82.8591 224.71 80.9791V80.8791H224.7ZM233.54 79.5491C233.54 78.4791 232.45 77.5791 231.04 77.5791C230.3 77.5791 229.66 77.7691 229.11 78.1491C228.56 78.5291 228.28 79.0091 228.25 79.5491H233.54Z" fill="#8A38C9"/>
</g>
<defs>
<clipPath id="clip0_5080_458">
<rect width="249" height="87" fill="white"/>
</clipPath>
</defs>
</svg>
