<svg width="360" height="86" viewBox="0 0 360 86" fill="none" xmlns="http://www.w3.org/2000/svg">
<mask id="mask0_5080_457" style="mask-type:luminance" maskUnits="userSpaceOnUse" x="320" y="12" width="29" height="29">
<path d="M329.614 32.5592C328.531 31.1372 327.921 29.0382 327.921 26.3974C327.921 23.7567 328.463 21.6577 329.614 20.2357C331.848 17.595 335.776 17.3241 338.416 19.5586C338.687 19.7617 338.89 20.0326 339.094 20.2357C340.177 21.6577 340.719 23.7567 340.719 26.3974C340.719 29.0382 340.177 31.1372 339.094 32.5592C336.859 35.1999 332.932 35.4707 330.291 33.2363C330.02 33.0331 329.817 32.83 329.614 32.5592ZM324.062 16.3762C319.525 22.2671 319.525 30.4601 324.062 36.4187C326.296 39.1949 329.749 40.6168 334.354 40.6168C338.958 40.6168 342.411 39.2626 344.646 36.4187C349.183 30.5278 349.183 22.3348 344.646 16.3762C342.411 13.5323 338.958 12.1104 334.354 12.1781C329.749 12.2458 326.296 13.6 324.062 16.3762Z" fill="white"/>
</mask>
<g mask="url(#mask0_5080_457)">
<path d="M358.189 2.01953H310.521V50.7039H358.189V2.01953Z" fill="#2A3375"/>
</g>
<mask id="mask1_5080_457" style="mask-type:luminance" maskUnits="userSpaceOnUse" x="267" y="12" width="25" height="29">
<path d="M275.784 34.5933C275.039 33.9162 274.701 32.9682 274.769 32.0202C274.701 30.8014 275.31 29.6504 276.394 29.041C277.409 28.567 278.493 28.2284 279.576 28.093L281.133 27.8222C281.743 27.6867 282.352 27.5513 282.962 27.3482C283.436 27.145 283.91 26.9419 284.316 26.6711V29.3118C284.248 31.6817 283.639 33.3068 282.352 34.187C281.133 35.0673 279.711 35.5412 278.222 35.5412C277.342 35.4735 276.529 35.2027 275.784 34.5933ZM270.706 15.7018C269.487 17.3946 268.81 19.426 268.742 21.525H275.378C275.513 20.6448 275.852 19.7645 276.394 19.0874C277.071 18.2749 278.222 17.8686 279.915 17.8686C281.066 17.8009 282.217 18.004 283.3 18.478C284.113 18.952 284.519 19.8322 284.451 20.7802C284.451 21.7281 283.842 22.5407 282.962 22.8115C282.081 23.1501 281.133 23.3532 280.185 23.4209L277.816 23.6918C275.716 23.8949 273.617 24.4366 271.721 25.4523C269.216 26.9419 267.93 29.3118 267.93 32.6296C267.93 35.2027 268.675 37.1663 270.3 38.5205C271.925 39.8747 273.821 40.4841 276.258 40.6196C291.29 41.2967 291.155 32.5619 291.29 30.7337V20.5771C291.29 17.3269 290.139 15.1602 287.904 13.9414C285.535 12.7226 282.826 12.1132 280.185 12.1809C275.716 12.1809 272.534 13.332 270.706 15.7018Z" fill="white"/>
</mask>
<g mask="url(#mask1_5080_457)">
<path d="M301.38 2.02539H257.774V50.7097H301.38V2.02539Z" fill="#2A3375"/>
</g>
<mask id="mask2_5080_457" style="mask-type:luminance" maskUnits="userSpaceOnUse" x="240" y="12" width="26" height="29">
<path d="M243.959 15.9768C241.657 18.5498 240.506 22.1385 240.506 26.7429C240.506 30.8055 241.522 34.1234 243.621 36.6964C245.72 39.2694 248.97 40.5559 253.371 40.5559C257.772 40.5559 261.158 38.9986 263.392 35.9516C264.746 34.1911 265.559 32.0921 265.762 29.8576H258.449C258.382 31.0764 257.908 32.2952 257.163 33.3108C256.486 34.1911 255.267 34.6651 253.574 34.6651C251.407 34.8005 249.376 33.3786 248.699 31.3472C248.157 29.8576 247.954 28.2325 248.022 26.6074C247.954 24.9147 248.225 23.2219 248.699 21.6645C249.579 19.2946 251.272 18.1435 253.71 18.1435C255.131 18.0081 256.553 18.6175 257.501 19.7686C258.043 20.5811 258.382 21.5291 258.517 22.4771H265.898C265.491 18.6175 264.205 15.9768 261.97 14.4871C259.736 12.9975 256.96 12.2527 253.506 12.2527C249.444 12.185 246.261 13.4038 243.959 15.9768Z" fill="white"/>
</mask>
<g mask="url(#mask2_5080_457)">
<path d="M275.989 2.02734H230.352V50.7117H275.989V2.02734Z" fill="#2A3375"/>
</g>
<mask id="mask3_5080_457" style="mask-type:luminance" maskUnits="userSpaceOnUse" x="224" y="12" width="16" height="28">
<path d="M224.258 25.718V39.5311H231.164V26.5983C231.164 24.4992 231.435 22.9419 231.977 21.9262C232.925 20.098 234.753 19.2177 237.529 19.2177C237.732 19.2177 238.003 19.2177 238.342 19.2177C238.68 19.2177 239.087 19.2855 239.493 19.2855V12.1758H238.883H238.545C223.378 12.1758 224.326 25.7857 224.258 25.718Z" fill="white"/>
</mask>
<g mask="url(#mask3_5080_457)">
<path d="M249.582 2.01953H214.102V49.6882H249.582V2.01953Z" fill="#2A3375"/>
</g>
<mask id="mask4_5080_457" style="mask-type:luminance" maskUnits="userSpaceOnUse" x="194" y="12" width="28" height="29">
<path d="M203.875 19.5153C204.958 18.4319 206.515 17.8902 208.005 17.9579C209.495 17.8902 210.984 18.4319 212.135 19.3799C213.287 20.4633 213.964 22.0206 213.964 23.6457H201.979C202.182 22.0883 202.859 20.6664 203.875 19.5153ZM198.526 15.9266C196.088 18.4319 194.869 21.9529 194.869 26.625C194.869 31.5679 196.223 35.1566 198.932 37.3233C201.573 39.4901 204.89 40.6412 208.276 40.6412C212.542 40.6412 215.927 39.3547 218.297 36.7139C219.448 35.5628 220.261 34.2086 220.735 32.6513H213.287C213.016 33.0575 212.677 33.3961 212.339 33.7346C211.323 34.5472 209.969 34.818 208.411 34.818C207.125 34.8857 205.838 34.6149 204.687 33.9378C202.927 32.8544 201.979 31.0262 201.843 28.3177H221.209C221.277 26.5573 221.209 24.7968 221.006 22.9686C220.735 21.0049 219.99 19.109 218.907 17.4162C217.756 15.6558 216.198 14.3015 214.302 13.4213C212.339 12.541 210.24 12.1348 208.073 12.1348C204.146 12.2025 200.963 13.4213 198.526 15.9266Z" fill="white"/>
</mask>
<g mask="url(#mask4_5080_457)">
<path d="M231.366 2.03711H184.713V50.7215H231.366V2.03711Z" fill="#2A3375"/>
</g>
<mask id="mask5_5080_457" style="mask-type:luminance" maskUnits="userSpaceOnUse" x="154" y="12" width="38" height="28">
<path d="M173.142 15.8589C171.246 13.489 168.402 12.1348 165.355 12.2025C158.652 12.2025 154.318 17.2131 154.318 23.7811V39.6255H160.616V23.6457C160.616 20.7341 162.579 18.7028 165.355 18.7028C169.486 18.7028 169.892 22.156 169.892 23.6457V39.6255H176.189V23.6457C176.189 20.7341 178.22 18.7028 180.929 18.7028C185.059 18.7028 185.533 22.156 185.533 23.6457V39.6255H191.83V23.7134C191.83 16.9423 187.768 12.1348 180.929 12.1348C177.882 12.1348 174.97 13.489 173.142 15.8589Z" fill="white"/>
</mask>
<g mask="url(#mask5_5080_457)">
<path d="M201.987 2.03711H144.162V49.7058H201.987V2.03711Z" fill="#2A3375"/>
</g>
<mask id="mask6_5080_457" style="mask-type:luminance" maskUnits="userSpaceOnUse" x="294" y="4" width="26" height="37">
<path d="M302.738 32.6458C301.722 30.8175 301.181 28.6508 301.316 26.5517C301.248 24.5204 301.722 22.5568 302.738 20.864C303.618 19.3066 305.311 18.4264 307.139 18.5618C308.426 18.5618 309.645 18.9681 310.592 19.8483C312.218 21.2703 313.03 23.7756 313.03 27.0257C313.098 29.0571 312.556 31.0207 311.54 32.7135C310.592 34.1354 308.9 35.0156 307.139 34.8802C305.311 34.9479 303.618 34.1354 302.738 32.6458ZM312.759 8.94683V16.4628C312.014 15.244 310.999 14.2283 309.78 13.5512C308.493 12.8064 307.071 12.4678 305.582 12.4678C302.399 12.4001 299.352 13.822 297.389 16.3951C295.357 19.0358 294.342 22.7599 294.342 27.2966C294.342 31.2238 295.357 34.474 297.456 36.9793C299.556 39.4846 303.618 40.568 307.207 40.568C319.801 40.568 319.666 29.531 319.666 29.531V4.07162C319.666 4.07162 319.327 4.00391 318.853 4.00391C317.025 4.07162 312.759 4.5456 312.759 8.94683Z" fill="white"/>
</mask>
<g mask="url(#mask6_5080_457)">
<path d="M329.756 -6.09375H284.119V50.7159H329.756V-6.09375Z" fill="#2A3375"/>
</g>
<mask id="mask7_5080_457" style="mask-type:luminance" maskUnits="userSpaceOnUse" x="221" y="53" width="27" height="29">
<path d="M230.273 60.807C231.424 59.7913 232.913 59.2497 234.403 59.3174C235.893 59.2497 237.382 59.7913 238.533 60.7393C239.684 61.755 240.361 63.2446 240.361 64.802H228.377C228.58 63.3123 229.189 61.8904 230.273 60.807ZM224.856 57.3537C222.418 59.7236 221.199 63.1769 221.199 67.6458C221.199 72.3856 222.553 75.8389 225.262 78.0057C227.903 80.1047 231.22 81.2558 234.606 81.1881C238.872 81.1881 242.19 79.9016 244.627 77.3962C245.778 76.3129 246.591 74.9586 247.065 73.469H239.617C239.346 73.8753 239.007 74.2138 238.669 74.5524C237.518 75.3649 236.096 75.7035 234.674 75.6358C233.387 75.7035 232.101 75.4326 230.95 74.7555C229.189 73.7398 228.309 71.9116 228.173 69.3386H247.539C247.607 67.6458 247.539 65.8853 247.268 64.1926C246.997 62.2966 246.252 60.4684 245.169 58.8434C244.018 57.1506 242.461 55.8641 240.565 55.0515C238.601 54.239 236.434 53.8328 234.335 53.8328C230.476 53.765 227.293 54.9839 224.856 57.3537Z" fill="white"/>
</mask>
<g mask="url(#mask7_5080_457)">
<path d="M257.698 43.6094H211.045V91.278H257.698V43.6094Z" fill="#2A3375"/>
</g>
<mask id="mask8_5080_457" style="mask-type:luminance" maskUnits="userSpaceOnUse" x="177" y="44" width="26" height="38">
<path d="M185.799 73.2714C184.715 71.5786 184.174 69.615 184.309 67.5836C184.309 64.3335 185.121 62.0313 186.747 60.6094C187.694 59.7969 188.913 59.3229 190.2 59.3229C191.96 59.1875 193.653 60.0677 194.601 61.6251C195.617 63.3856 196.091 65.3492 196.023 67.3805C196.091 69.4119 195.617 71.5109 194.601 73.2714C193.653 74.761 192.028 75.5736 190.268 75.4381C188.507 75.5736 186.814 74.6933 185.799 73.2714ZM177.606 49.7079V70.089C177.606 70.089 177.47 81.1259 190.064 81.1259C193.653 81.1259 197.783 80.0425 199.815 77.5372C201.914 75.0319 202.93 71.7818 202.93 67.8545C202.93 63.3179 201.914 59.7291 199.883 57.1561C197.919 54.5831 194.872 53.1612 191.689 53.2289C190.2 53.2289 188.778 53.5674 187.491 54.3123C186.273 55.0571 185.257 56.0728 184.512 57.2916V44.6973C184.309 44.6973 184.038 44.6973 183.835 44.6973C182.074 44.6973 177.606 45.1035 177.606 49.7079Z" fill="white"/>
</mask>
<g mask="url(#mask8_5080_457)">
<path d="M213.089 34.4746H167.451V91.2843H213.089V34.4746Z" fill="#2A3375"/>
</g>
<mask id="mask9_5080_457" style="mask-type:luminance" maskUnits="userSpaceOnUse" x="205" y="52" width="16" height="29">
<path d="M205.037 66.412V80.0897H211.943V67.2246C211.943 65.0578 212.214 63.5005 212.756 62.4848C213.704 60.6566 215.532 59.7763 218.308 59.7763C218.511 59.7763 218.782 59.7763 219.121 59.7763C219.459 59.7763 219.866 59.8441 220.272 59.8441V52.8021L219.662 52.7344H219.324C204.157 52.7344 205.037 66.4798 205.037 66.412Z" fill="white"/>
</mask>
<g mask="url(#mask9_5080_457)">
<path d="M230.358 42.5781H194.877V90.2468H230.358V42.5781Z" fill="#2A3375"/>
</g>
<mask id="mask10_5080_457" style="mask-type:luminance" maskUnits="userSpaceOnUse" x="154" y="44" width="7" height="37">
<path d="M154.318 49.6314V80.1692H160.412V44.6885H160.277C159.329 44.6208 154.318 44.8239 154.318 49.6314Z" fill="white"/>
</mask>
<g mask="url(#mask10_5080_457)">
<path d="M170.502 34.4629H144.162V90.2569H170.502V34.4629Z" fill="#2A3375"/>
</g>
<path d="M172.522 44.623H165.412V51.7327H172.522V44.623Z" fill="#2A3375"/>
<path d="M172.522 53.7617H165.412V80.1691H172.522V53.7617Z" fill="#2A3375"/>
<mask id="mask11_5080_457" style="mask-type:luminance" maskUnits="userSpaceOnUse" x="12" y="0" width="124" height="86">
<path d="M74.1411 0C40.2178 0.0677112 12.7948 18.282 12.9302 40.4913V42.8612C12.9979 66.4247 37.0354 85.4515 74.412 85.2484C111.992 85.1807 135.691 65.9507 135.691 42.4549C135.623 41.6424 135.691 41.1684 135.691 40.085C135.555 18.0112 108.2 0 74.412 0H74.1411V0Z" fill="white"/>
</mask>
<g mask="url(#mask11_5080_457)">
<path d="M145.783 -10.0918H2.70898V95.4699H145.783V-10.0918Z" fill="#2A3375"/>
</g>
<mask id="mask12_5080_457" style="mask-type:luminance" maskUnits="userSpaceOnUse" x="15" y="2" width="118" height="77">
<path d="M74.1289 2.16602C41.8307 2.23373 15.6941 19.4324 15.7619 40.5583C15.8296 61.6842 42.0338 78.7474 74.332 78.612C106.63 78.4765 132.767 61.3456 132.699 40.2197C132.631 19.0938 106.563 2.16602 74.3997 2.16602H74.1289Z" fill="white"/>
</mask>
<g mask="url(#mask12_5080_457)">
<path d="M142.856 -7.99414H5.60547V88.7652H142.856V-7.99414Z" fill="#FDD100"/>
</g>
<mask id="mask13_5080_457" style="mask-type:luminance" maskUnits="userSpaceOnUse" x="15" y="14" width="118" height="53">
<path d="M46.3177 44.7604C44.0155 44.8281 42.255 46.7917 42.3227 49.0939C42.3905 51.2607 44.1509 52.9534 46.3177 53.0889C47.4011 53.0889 48.4168 52.6149 49.1616 51.8701C49.2293 51.8701 49.2293 51.9378 49.1616 52.0055C48.9584 53.0211 48.6876 56.7453 52.5471 58.2349C53.9014 58.7766 55.4587 58.5058 56.5421 57.5578C56.8807 57.287 56.9484 57.4224 56.8807 57.7609C56.7452 58.7089 56.9484 60.8079 59.7922 61.8913C61.2819 62.5684 63.0424 62.2299 64.1257 61.0788C64.532 60.7402 64.5997 60.8079 64.6674 61.3496C64.7352 64.1935 67.105 66.428 69.9489 66.3603C72.7928 66.2926 75.0273 63.9227 74.9595 61.0788C74.8918 58.2349 72.5896 55.9327 69.7458 55.9327C68.5947 55.9327 67.3082 56.6098 67.105 56.5421C67.105 56.2713 67.1728 56.0004 67.3082 55.7296C67.4436 55.4588 68.9332 50.7867 65.2091 49.2293C62.2975 48.0105 60.5371 49.4325 59.9954 49.9741C59.7922 50.1773 59.7245 50.1096 59.7245 49.9064C59.6568 48.146 58.5057 46.5886 56.8129 46.0469C54.3753 45.3021 51.8023 46.25 50.3804 48.3491C50.1772 46.3177 48.4168 44.7604 46.3854 44.7604H46.3177V44.7604ZM15.6445 35.8225C16.7279 36.1611 18.4207 36.635 19.1655 36.7705C35.9579 40.4946 41.2394 44.2864 42.1196 45.0989C43.1353 43.8801 44.6926 43.203 46.25 43.203C48.0782 43.203 49.771 44.0833 50.7866 45.5729C51.9377 44.625 53.3597 44.151 54.7816 44.151C55.5941 44.151 56.4067 44.2864 57.2192 44.5572C58.7766 44.9635 59.9954 46.1146 60.6048 47.6043C61.3496 47.2657 62.1621 47.1303 62.9747 47.1303C63.9226 47.1303 64.8706 47.3334 65.7508 47.7397C68.8655 49.0262 69.3395 52.1409 69.0687 54.4431C69.2718 54.4431 69.4749 54.4431 69.6781 54.4431C73.3345 54.4431 76.3138 57.4224 76.3138 61.0788C76.3138 62.1622 76.0429 63.2455 75.5012 64.2612C76.5169 64.8029 79.0222 66.0894 81.2567 65.8186C83.0172 65.6154 83.762 64.9383 83.9651 64.5998C84.1683 64.2612 84.3037 64.0581 84.1683 63.9227L79.4285 58.6412C79.4285 58.6412 78.6837 57.8964 78.8868 57.6255C79.1576 57.3547 79.6316 57.7609 79.9702 58.0318C82.3401 60.0631 85.3194 63.1101 85.3194 63.1101C85.3194 63.1101 85.5902 63.5841 86.6736 63.7195C87.9601 63.9227 89.3143 63.6518 90.4654 62.8393C90.7363 62.5684 91.0748 62.2976 91.2779 62.0267L91.2102 62.0945C92.429 60.5371 91.0748 58.9797 91.0748 58.9797L85.5225 52.7503C85.5225 52.7503 84.7777 52.0055 84.9808 51.7346C85.2516 51.4638 85.7256 51.8701 86.0642 52.1409C87.8247 53.5628 90.33 56.0682 92.6322 58.3703C93.1061 58.7089 95.2052 59.9954 97.9136 58.1672C99.5387 57.0838 99.945 55.7296 99.8773 54.6462C99.7418 53.766 99.3356 52.9534 98.7262 52.344L91.1425 44.7604C91.1425 44.7604 90.3977 44.0833 90.6008 43.7447C90.8717 43.4062 91.3456 43.8802 91.6842 44.151C94.0541 46.1823 100.622 52.1409 100.622 52.1409C102.179 53.1566 104.211 53.0889 105.768 52.0055C106.716 51.4638 107.393 50.4481 107.461 49.297C107.529 48.1459 107.055 46.9949 106.174 46.1823C105.971 45.9792 87.0121 29.4577 82.7463 26.2075C80.241 24.3793 78.8868 23.9053 77.3971 23.7022C76.5169 23.6345 75.7044 23.7022 74.8241 23.9053C72.8605 24.447 70.2198 26.2075 67.9176 28.0357C65.48 29.9993 63.3132 31.7598 61.2142 32.2338C58.5057 32.8432 55.2556 32.0984 53.7659 31.0827C53.2242 30.7442 52.818 30.2702 52.5471 29.7285C52.0054 28.442 53.0211 27.4263 53.1565 27.2232L58.3703 21.5354C58.9797 20.926 59.5891 20.3166 60.1985 19.7072C58.5734 19.9781 57.0161 20.3166 55.4587 20.7906C53.6982 21.4 51.8023 21.7386 49.9064 21.8063C48.0105 21.6032 46.1146 21.3323 44.2187 20.926C39.0049 19.5718 33.9943 17.8113 29.1191 15.5769C21.9417 21.1969 16.9988 28.1711 15.6445 35.8225ZM76.5169 14.6289C67.6467 14.8998 63.7872 18.6916 59.7922 22.822L54.6462 28.442C54.6462 28.5097 54.0368 29.1191 54.3753 29.5931C55.2556 30.8119 58.1672 31.489 61.0787 30.8119C62.7715 30.4056 65.006 28.6451 67.1728 26.8846C69.5426 24.9887 71.7771 23.1605 74.147 22.4157C75.7721 21.8063 77.6003 21.7386 79.2253 22.2803C80.9181 22.8897 82.4755 23.8376 83.8297 24.9887C87.8924 28.0357 104.143 42.2551 106.987 44.625C115.315 40.9686 124.05 38.1247 132.92 36.1611C131.702 28.8483 127.233 22.2126 120.529 16.7957C111.185 20.7906 99.7418 22.8897 88.5695 17.4051C88.5018 17.4051 82.7463 14.6966 76.9232 14.6966L76.5169 14.6289Z" fill="white"/>
</mask>
<g mask="url(#mask13_5080_457)">
<path d="M143.077 4.46875H5.48828V76.4457H143.077V4.46875Z" fill="white"/>
</g>
<mask id="mask14_5080_457" style="mask-type:luminance" maskUnits="userSpaceOnUse" x="15" y="12" width="118" height="57">
<path d="M42.6607 49.0907C42.593 47.0594 44.218 45.2989 46.2494 45.2989C48.213 45.2312 49.8381 46.7208 50.0412 48.6167L50.1766 49.6324L50.7183 48.8199C51.734 47.3302 53.359 46.45 55.1195 46.3823C55.6612 46.3823 56.2029 46.45 56.7446 46.5854C58.302 47.0594 59.3176 48.4813 59.3853 50.1064C59.453 50.6481 59.7916 50.6481 59.8593 50.6481C59.9947 50.6481 60.1979 50.5804 60.3333 50.445C61.0104 49.7001 62.0261 49.2939 63.0417 49.2262C63.7189 49.2262 64.4637 49.4293 65.0731 49.7001C68.5941 51.1898 67.0367 55.7264 67.0367 55.7941C66.6981 56.539 66.6981 56.8775 66.969 57.0806L67.1044 57.1484H67.2398C67.443 57.0806 67.7138 57.0129 67.9169 56.9452C68.5263 56.6744 69.2035 56.539 69.8129 56.539C72.4536 56.539 74.5526 58.638 74.5526 61.2787C74.5526 63.9195 72.4536 66.0185 69.8129 66.0185C67.2398 66.0185 65.0731 63.9872 64.9376 61.4142C64.9376 61.211 64.9377 60.6016 64.396 60.6016C64.1928 60.6016 63.9897 60.7371 63.8543 60.9402C63.2449 61.6173 62.4323 62.0236 61.4844 62.0236C60.9427 62.0236 60.401 61.8881 59.927 61.685C57.1509 60.5339 57.1509 58.7057 57.2863 57.9609C57.354 57.7578 57.354 57.5546 57.2186 57.4192L57.0154 57.2838H56.88C56.7446 57.2838 56.5415 57.3515 56.4737 57.4869C55.7966 58.0286 54.9841 58.3672 54.1039 58.3672C53.6976 58.3672 53.2236 58.2994 52.8173 58.0963C49.2287 56.6744 49.4995 53.2888 49.7026 52.2054C49.7026 52.0023 49.7026 51.7992 49.5672 51.7315L49.2964 51.5283L49.0255 51.7992C48.3484 52.4763 47.4005 52.8826 46.4525 52.8148C44.3535 52.7471 42.7284 51.1221 42.6607 49.0907ZM77.058 12.6621H76.5163C69.1357 12.8652 65.0054 15.506 62.2292 17.7404C59.7916 17.8759 57.4217 18.3499 55.1195 19.027C53.4945 19.5687 51.8017 19.9072 50.1089 19.9749C49.7703 19.9749 49.2964 19.9749 48.8901 19.9749H48.1453C46.3848 19.9072 37.3115 17.7404 30.1341 15.032C29.3893 15.5737 28.6445 16.1154 27.9673 16.6571C35.4833 19.7041 44.692 22.074 47.5359 22.2094L50.0412 22.3448C52.0048 22.2094 53.9007 21.8708 55.7289 21.2614C56.88 20.9229 58.0988 20.5843 59.3176 20.3812C58.9791 20.7197 58.6405 21.0583 58.302 21.3969L53.0882 27.0169C52.6819 27.4231 51.734 28.5742 52.3434 29.9285C52.6819 30.5379 53.0882 31.0796 53.6976 31.4181C55.3904 32.3661 57.2863 32.84 59.2499 32.84C59.9947 32.84 60.7396 32.7723 61.4844 32.6369C63.6511 32.1629 65.9533 30.267 68.3909 28.3711C70.2868 26.8137 73.063 24.8501 75.162 24.2407C75.7714 24.1053 76.4486 23.9699 77.058 23.9699C77.2611 23.9699 77.3965 23.9699 77.5996 24.0376C79.0216 24.2407 80.3758 24.7147 82.7457 26.4752C87.0115 29.7253 106.038 46.2469 106.174 46.3823C106.919 47.1271 107.325 48.1428 107.325 49.1584C107.257 50.1741 106.715 51.0544 105.835 51.5961C105.09 52.07 104.21 52.3409 103.33 52.4086C102.585 52.4086 101.773 52.2054 101.163 51.7992C101.095 51.7315 94.5952 45.7729 92.1576 43.8093C91.819 43.5384 91.4804 43.3353 91.0742 43.1998C90.871 43.1998 90.6679 43.2676 90.5325 43.4707C90.1262 43.9447 90.6002 44.5541 91.0742 45.0281L98.6578 52.6117C99.1995 53.1534 99.6058 53.8982 99.7412 54.6431C99.8089 55.9296 99.1995 56.9452 97.913 57.8255C97.1005 58.4349 96.1525 58.7057 95.2046 58.7057C94.4597 58.7057 93.6472 58.4349 93.0378 58.0286L91.9544 56.9452C89.9231 54.9816 87.8918 52.9503 86.4021 51.6637C86.0635 51.3252 85.6573 51.1221 85.251 51.1221C85.0479 51.1221 84.9125 51.1898 84.777 51.3252C84.5739 51.5283 84.4385 51.8669 84.9125 52.4086C85.0479 52.544 85.1833 52.7471 85.3187 52.8826L90.871 59.112C91.5482 59.8568 91.6159 60.9402 91.0065 61.7527L90.8033 62.0236L90.3293 62.5653C89.5168 63.1747 88.5689 63.4455 87.6209 63.4455C87.3501 63.4455 87.0792 63.4455 86.8761 63.3778C86.4698 63.3101 86.1313 63.1747 85.7927 62.9715L85.725 62.9038C85.3864 62.5653 82.6103 59.7214 80.3081 57.8255C80.0373 57.5546 79.631 57.3515 79.2247 57.2838C79.0216 57.2838 78.8184 57.3515 78.683 57.4869C78.209 58.0286 78.8862 58.7734 79.2247 59.0443L83.9645 64.258C83.9645 64.3257 83.8968 64.3935 83.7614 64.5966C83.6259 64.7997 83.0165 65.3414 81.3238 65.68C81.1206 65.68 80.8498 65.7477 80.6467 65.7477C79.0216 65.68 77.4642 65.206 76.0423 64.3935C76.5163 63.4455 76.7194 62.4298 76.7194 61.3465C76.7194 57.4869 73.6724 54.3722 69.8129 54.3045H69.7451H69.4743C69.6097 52.544 69.3389 49.1584 65.8856 47.6688C64.9377 47.2625 63.922 47.0594 62.9063 46.9917C62.1615 46.9917 61.4167 47.1271 60.7396 47.398C60.0624 45.976 58.7759 44.9604 57.2863 44.4864C56.4738 44.2155 55.6612 44.0801 54.781 44.0801C53.359 44.0801 52.0048 44.5541 50.8537 45.3666C49.7026 43.9447 48.0099 43.1322 46.2494 43.1322C44.692 43.1322 43.1346 43.8092 42.0513 44.8926C40.5616 43.7415 34.7385 40.0851 19.0972 36.5642C18.3523 36.361 16.5919 35.8871 15.5762 35.6162C15.3731 36.4287 15.3053 37.309 15.1699 38.1892C15.1699 38.1892 18.0815 38.8663 18.6232 39.0018C34.603 42.5227 39.8168 46.1792 40.697 46.8563C40.4262 47.6011 40.2231 48.3459 40.2231 49.1584C40.2908 52.544 43.0669 55.1847 46.4525 55.117C46.7233 55.117 46.9942 55.117 47.265 55.0493C47.739 57.4869 49.4995 59.4505 51.8017 60.2631C52.4788 60.5339 53.2236 60.6693 53.9007 60.6693C54.3747 60.6693 54.781 60.6016 55.255 60.5339C55.9321 62.159 57.2863 63.4455 58.9114 63.9872C59.6562 64.3257 60.4687 64.4612 61.2812 64.4612C61.8906 64.4612 62.5678 64.3258 63.1094 64.1226C64.1928 66.7634 66.7659 68.4561 69.6097 68.4561C71.5056 68.4561 73.3338 67.6436 74.6204 66.2894C76.4486 67.305 78.4799 67.9144 80.5789 68.0499C80.8498 68.0499 81.1883 68.0499 81.4592 67.9821C83.8968 67.7113 84.9802 66.6956 85.4541 66.0185C85.5219 65.8831 85.6573 65.7477 85.725 65.6123C86.3344 65.8154 87.0115 65.9508 87.6209 65.8831C89.0428 65.8154 90.3294 65.3414 91.4127 64.4612C92.5638 63.7164 93.3764 62.4975 93.6472 61.1433V61.0756C94.0535 61.1433 94.4597 61.211 94.9337 61.211C96.3556 61.211 97.7099 60.7371 98.861 59.9245C101.366 58.2995 101.773 56.2004 101.705 54.8462C102.111 54.9139 102.585 54.9816 102.991 54.9816C104.278 54.9139 105.564 54.5753 106.715 53.8305C108.205 52.8826 109.153 51.3252 109.288 49.6324C109.356 48.4813 109.085 47.2625 108.476 46.2469C116.466 42.9967 124.659 40.356 132.987 38.4601C132.92 37.6475 132.784 36.6996 132.649 35.887C123.846 37.8507 115.247 40.6268 107.054 44.2832C101.231 39.2049 87.6886 27.4909 84.0322 24.7824C82.6103 23.5636 81.0529 22.6834 79.2924 22.0063C78.5476 21.7354 77.8028 21.6677 76.9902 21.6677C75.9746 21.6677 75.0266 21.8708 74.0787 22.1417C71.7088 22.8865 69.3389 24.7824 67.1044 26.6106L66.969 26.6783C64.8699 28.3711 62.6355 30.1316 61.0104 30.4702C60.2656 30.6056 59.5208 30.741 58.7759 30.741C56.9477 30.741 55.255 30.1993 54.5778 29.4545C54.4424 29.3191 54.5101 29.1159 54.781 28.7774L54.8487 28.7097L59.9947 23.1573C63.9897 19.1624 67.7815 15.3028 76.5163 15.0997H76.9902C82.4071 15.0997 87.8917 17.5373 88.5011 17.7404C93.3764 20.1781 98.7255 21.4646 104.142 21.4646C109.627 21.4646 115.315 20.0426 121.341 17.2665C120.664 16.7248 119.987 16.1154 119.242 15.6414C114.502 17.8082 109.356 19.027 104.142 19.0947C99.0641 19.027 94.0535 17.8759 89.4491 15.6414C89.1783 15.506 83.2197 12.7298 76.9902 12.7298L77.058 12.6621Z" fill="white"/>
</mask>
<g mask="url(#mask14_5080_457)">
<path d="M143.41 2.50781H5.07617V78.4798H143.41V2.50781Z" fill="#2A3375"/>
</g>
</svg>
