<svg width="374" height="87" viewBox="0 0 374 87" fill="none" xmlns="http://www.w3.org/2000/svg">
<path d="M77.8181 26.2873C77.9762 25.5884 78.2751 24.9422 78.6797 24.348C79.0841 23.7541 79.594 23.2126 80.227 22.741C80.8602 22.2518 81.5284 21.9024 82.2317 21.6577C82.935 21.4132 83.6735 21.291 84.4473 21.291C85.1332 21.291 85.7485 21.3958 86.3112 21.5878C86.8739 21.7801 87.384 22.077 87.8058 22.4788C88.2279 22.8632 88.562 23.3174 88.7729 23.824C88.9841 24.3131 89.0896 24.8549 89.0896 25.4488C89.0896 25.5884 89.0721 25.7458 89.0544 25.9379C89.0367 26.1125 89.0015 26.3048 88.9489 26.5143C88.7729 27.2132 88.4917 27.8595 88.0873 28.4536C87.6829 29.0475 87.1728 29.589 86.5398 30.0607C85.9068 30.5498 85.2387 30.8993 84.5351 31.144C83.8318 31.3884 83.0933 31.5109 82.3197 31.5109C81.6338 31.5109 81.0183 31.4059 80.4556 31.2138C79.8929 31.0217 79.383 30.7247 78.961 30.3228C78.5389 29.921 78.2048 29.4843 77.9939 28.9951C77.783 28.506 77.6773 27.9645 77.6773 27.3704C77.6773 27.2307 77.695 27.0735 77.7124 26.8812C77.7478 26.7066 77.783 26.5143 77.8181 26.2873ZM20.1239 26.7765C20.1943 26.4794 20.247 26.1826 20.335 25.9204C20.4229 25.6408 20.5108 25.3789 20.5987 25.1342C20.7042 24.8723 20.8097 24.6276 20.9504 24.3832C21.0735 24.1385 21.2142 23.9287 21.3548 23.7192C21.4955 23.5271 21.6362 23.3523 21.7945 23.1777C21.9527 23.0029 22.111 22.8283 22.2692 22.6711C22.4275 22.5137 22.6033 22.374 22.7792 22.2344L22.8495 22.182L22.8319 22.1468L23.3243 21.8325C23.5001 21.7278 23.6935 21.6228 23.887 21.518C24.0804 21.4307 24.2914 21.3434 24.4848 21.2733C24.6783 21.2035 24.8717 21.1336 25.0827 21.0638C25.2937 20.994 25.5047 20.9415 25.7158 20.8891C25.8916 20.8542 26.1026 20.8192 26.3136 20.7843C26.507 20.7493 26.7181 20.7319 26.9115 20.7144C27.1225 20.6795 27.3159 20.662 27.5269 20.662C27.738 20.6445 27.9489 20.6445 28.1248 20.6445H31.2548C32.2044 20.6445 33.0484 20.7493 33.7518 20.9765C34.4903 21.2035 35.1058 21.5529 35.5982 22.0246C35.8443 22.2518 36.0729 22.5487 36.2664 22.8632C36.4598 23.1777 36.6179 23.5271 36.7588 23.9113C36.8994 24.2782 37.0048 24.68 37.0928 25.0993C37.1806 25.5186 37.2512 25.9903 37.3038 26.4794L40.0293 53.051L53.9387 26.13L53.9561 26.1125L53.9738 26.095C54.2199 25.6234 54.4837 25.1866 54.7474 24.7848C55.0112 24.3832 55.275 23.9988 55.5562 23.6668C55.8377 23.3174 56.1189 23.0029 56.4178 22.7235C56.7168 22.4439 57.0157 22.182 57.3146 21.9722C57.6312 21.7452 57.9653 21.5529 58.3171 21.3958C58.6686 21.2384 59.0379 21.0987 59.4425 20.994C59.8469 20.8891 60.2513 20.8017 60.6734 20.7493C61.0954 20.6969 61.535 20.6795 61.9922 20.6795H64.9992C65.2981 20.6795 65.6497 20.6969 66.0014 20.7319C66.1772 20.7493 66.3355 20.7668 66.4938 20.7843C66.6519 20.8017 66.8279 20.8367 66.9862 20.8716C67.162 20.9066 67.3378 20.9415 67.5135 20.994C67.6895 21.0463 67.8478 21.0987 68.0059 21.1511C68.1642 21.2035 68.3225 21.2733 68.4808 21.3609C68.6389 21.4307 68.7798 21.518 68.9378 21.6053C69.0962 21.7101 69.237 21.7976 69.3776 21.9198C69.5182 22.0246 69.6414 22.1468 69.7643 22.2693C69.8875 22.3915 70.0106 22.5312 70.1161 22.6711C70.2216 22.8108 70.327 22.9679 70.415 23.1079C70.6085 23.4396 70.7491 23.8065 70.8546 24.2083C70.9426 24.5927 70.9954 25.0295 70.9954 25.4837C70.9954 25.6059 70.9954 25.7633 70.9777 25.9204C70.9603 26.0776 70.9603 26.2175 70.9426 26.3746C70.9249 26.4969 70.9074 26.6542 70.8723 26.8288C70.8371 27.0035 70.8019 27.1434 70.7668 27.3005L62.8187 65.1927L62.801 65.2626C62.7307 65.6469 62.6252 66.0138 62.5021 66.3805C62.3789 66.7474 62.2383 67.0969 62.0625 67.4463C61.8868 67.7958 61.6933 68.1275 61.4821 68.442C61.2712 68.7566 61.0251 69.0709 60.7614 69.3679C60.4624 69.6999 60.1458 69.997 59.794 70.2414C59.4425 70.4861 59.0556 70.6956 58.6335 70.853C58.2291 71.0102 57.7896 71.1324 57.35 71.2197C56.8928 71.2898 56.4178 71.3421 55.9257 71.3421C55.0815 71.3421 54.3431 71.2197 53.71 70.9752C53.0417 70.7131 52.5141 70.3462 52.1097 69.8221C51.9163 69.5951 51.7582 69.333 51.6173 69.0886C51.4767 68.8264 51.3536 68.5468 51.2658 68.2674C51.1778 67.9878 51.1075 67.6908 51.0546 67.3939C51.002 67.0969 50.9843 66.7998 50.9843 66.4855V66.3107C50.9843 66.2408 50.9843 66.171 50.9843 66.1011C50.9843 65.9964 51.002 65.9263 51.002 65.8739C51.002 65.7692 51.0195 65.7168 51.0195 65.6819C51.0195 65.6295 51.0372 65.5596 51.0372 65.4721C51.0372 65.4197 51.0546 65.3499 51.0723 65.2451C51.0898 65.1578 51.0898 65.088 51.1075 65.0353C51.1252 64.948 51.1252 64.8782 51.1426 64.8433L51.1603 64.7734V64.756L55.7322 42.9886L42.6495 67.6209C42.2978 68.2674 41.9108 68.8264 41.4713 69.2981C41.014 69.7872 40.5393 70.1716 39.9941 70.4512C39.7303 70.5909 39.4666 70.7131 39.1853 70.8179C38.9216 70.9229 38.6226 71.0102 38.3237 71.08C38.0248 71.1498 37.7082 71.2022 37.4092 71.2371C37.0928 71.2721 36.7762 71.2898 36.4598 71.2898C35.7914 71.2898 35.1761 71.2197 34.631 71.0625C34.0683 70.9054 33.5583 70.6782 33.1187 70.3636C32.644 70.0319 32.2747 69.5951 31.9934 69.0534C31.7296 68.5293 31.5537 67.918 31.4658 67.2016V67.1667L28.6523 42.4643L23.8518 65.1403V65.1753C23.7815 65.5596 23.676 65.9263 23.5529 66.2932C23.4122 66.6601 23.2715 67.0096 23.0957 67.359C22.9199 67.7082 22.7264 68.0402 22.5154 68.3547C22.3044 68.6693 22.0582 68.9836 21.7945 69.2806C21.4955 69.6126 21.179 69.9094 20.8273 70.1541C20.4756 70.3988 20.0888 70.6083 19.6667 70.7655C19.2623 70.9229 18.8227 71.0451 18.3831 71.1324C17.9259 71.2022 17.4511 71.2546 16.9588 71.2546C16.1147 71.2546 15.3762 71.1324 14.7431 70.8879C14.0925 70.6258 13.5474 70.2589 13.143 69.7348C12.9496 69.5078 12.7913 69.2457 12.6506 69.001C12.5099 68.7391 12.3869 68.4595 12.2989 68.1799C12.211 67.9005 12.1407 67.6035 12.0879 67.3066C12.0176 67.027 12 66.7125 12 66.398C12 66.398 12 66.3281 12 66.2234C12 66.1535 12 66.0837 12 66.0138C12 65.9263 12 65.839 12.0176 65.8041C12.0176 65.6993 12.0352 65.6295 12.0352 65.612C12.0352 65.5596 12.0528 65.4896 12.0528 65.4023C12.0528 65.3499 12.0703 65.28 12.0879 65.1753C12.1055 65.088 12.1055 65.0179 12.1231 64.9655C12.1407 64.9131 12.1407 64.8433 12.1583 64.7734L12.1758 64.7036L20.0712 27.091L20.1239 26.7765ZM73.9144 39.1451C74.055 38.4812 74.2659 37.8349 74.5648 37.241C74.8638 36.6469 75.2332 36.0879 75.6902 35.5813C76.1826 35.0398 76.8156 34.6205 77.5718 34.3583C78.3105 34.0962 79.1896 33.974 80.1744 33.974C80.9831 33.974 81.6865 34.0613 82.2669 34.2361C82.8824 34.4282 83.3746 34.7078 83.7263 35.1096C84.0604 35.4765 84.3067 35.8958 84.4648 36.35C84.6231 36.8042 84.7111 37.2934 84.7111 37.8349C84.7111 38.0619 84.6934 38.324 84.6583 38.5862C84.6231 38.8481 84.5705 39.1277 84.5 39.3896L79.0138 65.5422C78.8732 66.2059 78.662 66.8524 78.3631 67.4463C78.0642 68.0402 77.695 68.5992 77.2377 69.106C76.7453 69.6475 76.1123 70.0668 75.3562 70.3287C74.6177 70.5909 73.7384 70.7131 72.7538 70.7131C71.9448 70.7131 71.2415 70.6258 70.6613 70.4512C70.0458 70.2589 69.5534 69.9795 69.2016 69.5777C68.8675 69.2108 68.6215 68.7915 68.4631 68.3373C68.3048 67.8831 68.2171 67.3939 68.2171 66.8524C68.2171 66.6252 68.2345 66.3631 68.2697 66.1011C68.3048 65.839 68.3577 65.5771 68.428 65.2975L73.9144 39.1451Z" fill="#FF7929"/>
<path d="M135.863 58.2226C135.019 61.8563 132.188 64.3197 128.513 64.3197C126.28 64.3197 125.488 62.9221 125.383 60.9828C125.119 56.1262 132.399 54.257 136.549 54.9207C136.426 55.6196 136.127 57.087 135.863 58.2226ZM135.986 34.2715C132.944 34.2715 129.41 34.4985 126.877 35.6167C124.978 36.4552 123.361 37.451 122.991 39.7395C122.833 40.8053 122.78 41.6788 123.484 42.5697C124.152 43.4255 125.4 43.9149 126.543 43.9149C128.53 43.9149 130.025 43.4956 131.66 42.9364C132.715 42.5872 136.689 41.5738 138.043 43.1287C138.712 43.9149 138.589 44.963 138.237 46.7624C118.402 47.1467 115.448 58.1528 117.083 64.8961C118.472 70.5564 124.187 71.7968 128.02 71.7968C138.8 71.7968 142.439 65.4551 144.374 57.3666C144.374 57.3666 146.097 48.0202 146.906 43.88C147.68 39.8617 146.888 34.2715 135.986 34.2715Z" fill="#FF7929"/>
<path d="M244.589 58.0303C243.745 61.6642 240.913 64.1274 237.238 64.1274C235.005 64.1274 234.214 62.7298 234.108 60.7907C233.845 55.9341 241.125 54.0649 245.275 54.7286C245.152 55.4101 244.851 56.8775 244.589 58.0303ZM244.712 34.2715C241.67 34.2715 238.135 34.4985 235.603 35.6167C233.704 36.4552 232.086 37.451 231.717 39.7395C231.541 40.7878 231.488 41.6788 232.192 42.5697C232.86 43.4255 234.108 43.9149 235.251 43.9149C237.238 43.9149 238.733 43.4956 240.368 42.9364C241.424 42.5872 245.399 41.5738 246.751 43.1287C247.419 43.9149 247.296 44.963 246.944 46.7624C227.11 47.1467 224.156 58.1528 225.791 64.8961C227.163 70.5564 232.895 71.7968 236.728 71.7968C247.508 71.7968 251.13 65.4551 253.065 57.3666C253.065 57.3666 254.788 48.0202 255.596 43.88C256.406 39.8617 255.63 34.2715 244.712 34.2715Z" fill="#FF7929"/>
<path d="M174.48 35.0078H163.542C155.401 35.0953 151.005 40.2663 149.739 47.167L145.817 67.659C145.149 71.0133 146.521 71.5374 148.191 71.5374C148.455 71.5374 148.578 71.5374 149.018 71.5374C152.253 71.5374 155.155 69.0217 156.086 65.0211C156.21 64.4796 159.217 48.355 159.217 48.355C159.797 45.5596 161.186 43.6206 164.123 43.6206C164.14 43.6206 169.732 43.6031 169.873 43.6031C174.023 43.6031 175.13 40.6506 175.13 40.6506L175.886 38.9735C177.029 35.9688 176.15 35.0078 174.48 35.0078Z" fill="#FF7929"/>
<path d="M126.668 16.3143C126.668 16.3143 116.294 16.2969 115.907 16.2969C107.062 16.2969 101.083 21.6252 100.292 28.2637L99.0433 34.0113L90.3039 34.256C87.9123 34.0637 85.9078 44.2137 88.7036 43.2703C92.3436 43.2703 97.3552 43.2703 97.3552 43.2703L92.6953 67.5884C92.0272 70.9427 93.3987 71.4668 95.0693 71.4668C95.3331 71.4668 95.456 71.4668 95.8958 71.4668C99.1311 71.4668 102.015 68.9685 102.947 64.9679C103.053 64.4962 105.391 51.9704 105.954 48.9656C106.306 47.2186 107.062 43.2703 107.062 43.2703C107.062 43.2703 114.852 43.2529 115.08 43.2529C119.23 43.2529 120.32 40.3004 120.32 40.3004L121.076 38.6409C122.237 35.6361 121.358 34.0462 119.687 34.0462L108.82 34.0811L109.893 28.8925C110.086 27.0233 112.143 24.9446 114.254 24.9446C116.61 24.9446 120.109 24.9446 121.92 24.9446C126.07 24.9446 127.178 21.9921 127.178 21.9921L127.934 20.3324C129.06 17.2927 128.339 16.3143 126.668 16.3143Z" fill="#FF7929"/>
<path d="M211.827 34.8301C208.276 34.8301 204.618 35.9829 201.717 37.9921C199.079 35.948 195.685 34.8301 192.098 34.8301C183.499 34.8301 177.802 39.0577 176.237 46.8318L172.263 67.7257C171.595 71.0277 172.966 71.5517 174.602 71.5517C174.865 71.5517 174.989 71.5517 175.428 71.5517C178.611 71.5517 181.477 69.0709 182.391 65.1402C182.515 64.6161 185.68 47.513 185.68 47.513H185.662C186.154 45.4518 188.001 43.3902 191.201 43.3029H191.359C194.771 43.3029 196.09 45.5391 195.562 48.6661C195.562 48.6661 191.992 67.2715 191.975 67.5337L191.94 67.7432C191.271 71.0451 192.643 71.5692 194.278 71.5692C194.542 71.5692 194.665 71.5692 195.105 71.5692C198.288 71.5692 201.154 69.0884 202.068 65.1576C202.191 64.6336 205.409 47.4607 205.409 47.4607C205.919 44.9277 207.853 43.1807 211.124 43.1807C216.136 43.1807 215.397 47.2337 215.397 47.2337L211.529 67.7781C210.86 71.0801 212.232 71.6041 213.867 71.6041C214.131 71.6041 214.237 71.6041 214.694 71.6041C217.877 71.6041 220.743 69.1233 221.657 65.1926C221.78 64.6685 225.139 47.0239 225.139 47.0239H225.121C226.212 40.997 221.481 34.8301 211.827 34.8301Z" fill="#FF7929"/>
<path d="M268.527 55.3107H268.545C268.475 55.3107 268.422 55.3107 268.35 55.293C268.422 55.293 268.475 55.3107 268.527 55.3107Z" fill="white"/>
<path d="M341.183 51.9361L328.187 52.1459C326.325 52.1459 325.163 50.6258 325.727 48.9836L331.933 29.138H331.915L310.429 29.1206C308.687 29.138 307.595 27.1987 308.159 25.4517L312.415 12.5241C312.415 12.5241 315.017 5.55362 321.946 3.49219H321.066C321.066 3.49219 309.213 3.78916 305.943 14.2711C305.347 16.1578 301.338 29.1206 301.338 29.1206C301.338 29.1206 287.639 29.1029 285.721 29.1029H285.704C274.66 29.1029 270.705 39.7246 270.705 39.7246L269.932 42.0482C273.817 35.0777 282.487 34.8682 282.487 34.8682L296.183 34.8856C298.048 34.8856 299.086 36.3705 298.523 38.0127L292.281 58.0331L313.241 58.0506C314.999 58.0331 316.091 59.6053 315.509 61.3523L311.255 74.2802C311.255 74.2802 308.862 80.9012 302.567 83.3469C303.393 83.3294 315.087 82.9102 318.253 72.7951C318.833 70.9433 322.842 58.1379 322.842 58.1379C322.842 58.1379 335.961 58.1553 337.858 58.1553H337.877C348.919 58.1553 352.893 47.1318 352.893 47.1318L353.035 46.7126C348.691 51.8837 341.183 51.9361 341.183 51.9361Z" fill="#79B827"/>
<path d="M357.782 31.9872C357.782 32.0222 357.782 32.0748 357.782 32.1097C357.782 32.197 357.763 32.2669 357.747 32.3542C357.747 32.3891 357.729 32.424 357.729 32.4589C357.712 32.5814 357.677 32.7036 357.624 32.8258L353.051 46.7145L352.912 47.1338C352.912 47.1338 348.954 58.1571 337.893 58.1571H337.877C335.977 58.1571 322.858 58.1396 322.858 58.1396C322.858 58.1396 318.849 70.945 318.27 72.797C315.122 82.9119 303.412 83.3312 302.602 83.3486C302.567 83.3486 302.55 83.3486 302.55 83.3486L288.165 83.5758C286.109 83.5758 284.824 81.8987 285.439 80.0819L292.316 58.1047L268.523 58.0872H268.507C268.453 58.0872 268.402 58.0872 268.349 58.0698C268.295 58.0698 268.225 58.0698 268.172 58.0523C268.12 58.0348 268.067 58.0348 267.997 58.0174C267.943 57.9999 267.89 57.9999 267.839 57.9825C267.785 57.965 267.734 57.9475 267.68 57.9301C267.627 57.9126 267.576 57.8952 267.522 57.8777C267.468 57.8602 267.417 57.8253 267.364 57.7904C267.31 57.7729 267.275 57.738 267.222 57.7203C267.17 57.6854 267.117 57.6505 267.082 57.6156C267.047 57.5806 266.994 57.5632 266.959 57.5283C266.907 57.4933 266.87 57.4409 266.819 57.406C266.784 57.3711 266.749 57.3362 266.712 57.3013C266.677 57.2486 266.626 57.2137 266.591 57.1613C266.554 57.1264 266.519 57.0915 266.502 57.0566C266.467 57.0042 266.432 56.9518 266.395 56.8994C266.379 56.8645 266.344 56.8294 266.325 56.777C266.29 56.7246 266.274 56.6722 266.239 56.6024C266.221 56.55 266.186 56.5151 266.167 56.4627C266.132 56.4103 266.116 56.3402 266.097 56.2878C266.081 56.2355 266.062 56.2005 266.044 56.1482C266.027 56.0783 266.009 56.0259 265.992 55.9561C265.974 55.9035 265.958 55.8686 265.958 55.8162C265.939 55.7463 265.939 55.6765 265.923 55.6066C265.923 55.5543 265.904 55.5193 265.904 55.4667C265.904 55.3969 265.885 55.327 265.885 55.2572C265.885 55.2048 265.885 55.1524 265.885 55.1001C265.885 55.03 265.885 54.9601 265.885 54.8903C265.885 54.8379 265.885 54.7855 265.904 54.7331C265.904 54.6633 265.923 54.5932 265.939 54.5059C265.939 54.4535 265.958 54.4186 265.958 54.3662C265.974 54.244 266.009 54.1216 266.062 53.9993L270.018 41.9976L270.774 39.6741C270.774 39.6741 274.732 29.0525 285.774 29.0525H285.793C287.709 29.0525 301.407 29.0699 301.407 29.0699C301.407 29.0699 305.416 16.1247 306.015 14.2205C309.283 3.73856 321.136 3.44157 321.136 3.44157H322.016L336.294 3.45903C338.352 3.45903 339.511 5.10119 338.878 6.93554L331.968 29.1048H331.987L355.179 29.1223H355.198C355.249 29.1223 355.303 29.1223 355.356 29.1398C355.407 29.1398 355.477 29.1398 355.531 29.1572C355.584 29.1572 355.636 29.1747 355.689 29.1747C355.743 29.1921 355.812 29.1921 355.866 29.2096C355.917 29.2271 355.971 29.2445 356.006 29.2445C356.059 29.262 356.11 29.2794 356.183 29.2969C356.234 29.3144 356.269 29.3318 356.322 29.3493C356.376 29.3667 356.427 29.3842 356.481 29.4194C356.516 29.4368 356.569 29.4717 356.604 29.4892C356.658 29.5241 356.709 29.5416 356.744 29.5765C356.779 29.594 356.816 29.6289 356.851 29.6638C356.902 29.6987 356.937 29.7337 356.991 29.7686C357.025 29.8035 357.06 29.8384 357.095 29.8736C357.13 29.9085 357.167 29.9434 357.202 29.9958C357.237 30.0307 357.254 30.0656 357.288 30.118C357.326 30.1529 357.361 30.2053 357.377 30.2402C357.412 30.2752 357.431 30.3278 357.447 30.3802C357.465 30.4326 357.5 30.4675 357.519 30.5199C357.535 30.5722 357.57 30.6246 357.589 30.6595C357.605 30.7119 357.624 30.7471 357.642 30.7995C357.659 30.8518 357.677 30.9042 357.694 30.9566C357.712 31.009 357.729 31.0439 357.729 31.0963C357.747 31.1487 357.747 31.2187 357.763 31.2711C357.763 31.3235 357.782 31.3584 357.782 31.4108C357.801 31.4807 357.798 31.533 357.798 31.6029C357.798 31.6555 357.798 31.6904 357.798 31.7428C357.798 31.8301 357.801 31.8999 357.782 31.9872ZM360.122 27.3055C359.188 25.6108 357.167 24.8246 355.144 24.8246H355.126L336.664 24.8072L342.168 8.01866C342.801 6.09699 342.535 4.10542 341.411 2.53312C340.268 0.943365 338.387 0.0174608 336.277 0.0174608L321.119 0H321.084H321.031C320.661 0.0174607 317.32 0.139755 313.453 1.71205C308.054 3.93072 304.327 7.89639 302.674 13.2072C302.25 14.5699 300.017 20.6843 298.821 24.5276C294.761 24.5276 287.18 24.5276 285.793 24.5101C280.236 24.5101 275.312 27.8295 271.531 32.0571C268.805 35.1143 267.627 38.1367 267.503 38.4686L267.487 38.5385L267.468 38.5909L262.756 52.9163C262.07 55.0125 262.421 57.3013 263.688 59.0306C264.849 60.6204 266.626 61.5288 268.56 61.5288H268.577H268.595H287.639L282.187 78.9814C281.553 80.868 281.835 82.842 282.96 84.4144C284.14 86.0567 286.056 87 288.219 87H288.254H288.289L302.655 86.7728C303.13 86.7728 306.559 86.6855 310.48 85.2006C316.126 83.0693 319.992 79.121 321.664 73.7753C322.085 72.4301 324.302 65.3548 325.496 61.5638H337.947C343.52 61.5638 348.463 59.2403 352.26 54.8379C354.967 51.6934 356.129 48.5837 356.253 48.2343L356.269 48.1819L356.287 48.1295L360.999 32.9657C361.598 31.0264 360.825 28.5808 360.122 27.3055Z" fill="white"/>
<path d="M311.308 74.2831L315.563 61.3554C316.143 59.591 315.053 58.0363 313.296 58.0537L292.334 58.0363L298.578 38.0156C299.139 36.3736 298.103 34.8886 296.238 34.8886L282.539 34.8711C282.539 34.8711 273.853 35.0809 269.984 42.0514L266.028 54.0531C265.994 54.1754 265.959 54.2976 265.924 54.4201C265.905 54.4724 265.905 54.5248 265.905 54.5597C265.886 54.6296 265.87 54.7169 265.87 54.7867C265.87 54.8391 265.87 54.8917 265.87 54.9441C265.87 55.014 265.852 55.0838 265.852 55.1536C265.852 55.206 265.852 55.2584 265.87 55.2933C265.87 55.3634 265.87 55.4332 265.886 55.5031C265.886 55.5555 265.905 55.6078 265.905 55.6428C265.924 55.7126 265.924 55.7827 265.94 55.8525C265.959 55.9049 265.975 55.9398 265.975 55.9922C265.994 56.0621 266.01 56.1319 266.028 56.1843C266.045 56.2369 266.063 56.2718 266.082 56.3242C266.098 56.394 266.133 56.4464 266.152 56.4988C266.168 56.5512 266.203 56.5861 266.222 56.6387C266.257 56.6911 266.275 56.7435 266.31 56.8133C266.326 56.8483 266.361 56.8832 266.38 56.9356C266.415 56.9879 266.45 57.0403 266.485 57.0929C266.52 57.1279 266.555 57.1628 266.573 57.1977C266.608 57.2501 266.643 57.3025 266.697 57.3374C266.732 57.3723 266.766 57.4072 266.801 57.4421C266.855 57.4771 266.89 57.5297 266.943 57.5646C266.978 57.5995 267.03 57.617 267.067 57.6519C267.118 57.6868 267.153 57.7218 267.207 57.7567C267.26 57.7916 267.295 57.8091 267.346 57.8265C267.4 57.8614 267.453 57.8789 267.505 57.9138C267.558 57.9313 267.612 57.9487 267.647 57.9664C267.698 57.9839 267.751 58.0188 267.805 58.0188C267.856 58.0363 267.91 58.0363 267.963 58.0537C268.014 58.0712 268.068 58.0712 268.138 58.0887C268.191 58.0887 268.261 58.0887 268.315 58.1061C268.385 58.1061 268.438 58.1236 268.508 58.1236L292.299 58.141L285.424 80.1182C284.791 81.935 286.092 83.6122 288.15 83.6122L302.533 83.385C302.533 83.385 302.552 83.385 302.586 83.385C308.917 80.9216 311.308 74.2831 311.308 74.2831Z" fill="#1B8F43"/>
<path d="M312.431 12.5103L308.175 25.4381C307.596 27.1851 308.685 29.1242 310.445 29.1067L331.933 29.1242L338.843 6.95491C339.476 5.12059 338.315 3.49588 336.259 3.47842L321.981 3.46094C315.034 5.55734 312.431 12.5103 312.431 12.5103Z" fill="#FFF200"/>
<path d="M357.783 31.429C357.783 31.3766 357.765 31.3417 357.765 31.2893C357.749 31.2367 357.749 31.1669 357.73 31.1145C357.714 31.0621 357.695 31.0272 357.695 30.9748C357.679 30.9224 357.66 30.87 357.644 30.8174C357.625 30.765 357.607 30.7301 357.59 30.6777C357.572 30.6254 357.555 30.573 357.52 30.5381C357.502 30.4857 357.467 30.4508 357.432 30.3984C357.413 30.3632 357.378 30.3108 357.362 30.2585C357.327 30.2235 357.29 30.1712 357.274 30.1362C357.239 30.1013 357.22 30.0489 357.185 30.014C357.15 29.9791 357.115 29.9439 357.08 29.8915C357.045 29.8566 357.011 29.8217 356.976 29.7868C356.938 29.7519 356.887 29.7169 356.834 29.682C356.799 29.6471 356.764 29.6296 356.729 29.5947C356.675 29.5598 356.64 29.5423 356.587 29.5072C356.552 29.4897 356.501 29.4548 356.463 29.4373C356.412 29.4199 356.359 29.385 356.307 29.3675C356.254 29.35 356.219 29.3326 356.165 29.3151C356.112 29.2977 356.061 29.2802 355.991 29.2627C355.937 29.2453 355.884 29.2278 355.849 29.2278C355.795 29.2104 355.725 29.2103 355.674 29.1929C355.621 29.1929 355.567 29.1754 355.516 29.1754C355.462 29.1754 355.393 29.1754 355.339 29.158C355.285 29.158 355.216 29.1405 355.164 29.1405L331.97 29.123L325.763 48.9514C325.2 50.5934 326.361 52.1134 328.224 52.1134L341.219 51.9036C341.219 51.9036 348.727 51.8513 353.088 46.6801L357.66 32.8091C357.695 32.6869 357.73 32.5644 357.765 32.4422C357.765 32.4073 357.783 32.3724 357.783 32.3374C357.802 32.2501 357.818 32.1628 357.818 32.0928C357.818 32.0404 357.818 32.0055 357.818 31.9705C357.818 31.9007 357.837 31.8308 357.837 31.7435C357.837 31.6909 357.837 31.656 357.837 31.6036C357.783 31.5687 357.783 31.4989 357.783 31.429Z" fill="#FFF200"/>
<path d="M264.36 57.3693H264.376C264.306 57.3693 264.252 57.3693 264.183 57.3516C264.252 57.3516 264.306 57.3693 264.36 57.3693Z" fill="white"/>
</svg>
