<svg width="225" height="87" viewBox="0 0 225 87" fill="none" xmlns="http://www.w3.org/2000/svg">
<path fill-rule="evenodd" clip-rule="evenodd" d="M168.8 34.8838C168.521 36.4169 168.079 38.1871 167.486 40.1381C166.89 42.089 166.126 44.1473 165.226 46.2337C164.247 48.3372 163.231 50.3051 162.213 52.0781C161.206 53.8343 160.199 55.3448 159.234 56.5673C158.291 57.7588 157.416 58.6397 156.638 59.1874C156.051 59.5996 155.723 59.6447 155.611 59.6447C155.559 59.6447 155.516 59.6363 155.471 59.616C155.373 59.5711 155.046 59.3506 154.904 58.3031C154.769 57.3431 154.842 56.0811 155.113 54.5537C155.393 52.981 155.832 51.1938 156.428 49.2542C157.015 47.3145 157.779 45.2563 158.694 43.1416C159.6 41.0438 160.59 39.0872 161.642 37.3226C162.688 35.5608 163.707 34.0673 164.672 32.8814C165.609 31.7239 166.484 30.8571 167.273 30.3009C167.863 29.8887 168.188 29.8435 168.3 29.8435C168.356 29.8435 168.398 29.852 168.437 29.8723C168.535 29.915 168.862 30.1377 169.007 31.1852C169.139 32.1451 169.069 33.3874 168.8 34.8838ZM129.532 34.8838C129.253 36.4169 128.811 38.1871 128.218 40.1381C127.619 42.1003 126.855 44.1557 125.957 46.2337C124.976 48.3428 123.96 50.3107 122.945 52.0781C121.935 53.8371 120.931 55.3476 119.966 56.5673C119.023 57.7587 118.15 58.6396 117.367 59.1874C116.78 59.5996 116.455 59.6447 116.343 59.6447C116.291 59.6447 116.248 59.6363 116.203 59.617C116.105 59.5722 115.778 59.3516 115.636 58.3041C115.501 57.347 115.571 56.0878 115.845 54.5547C116.122 52.9849 116.564 51.2033 117.16 49.2552C117.747 47.3127 118.511 45.2573 119.426 43.1426C120.335 41.0392 121.328 39.0826 122.371 37.3236C123.423 35.559 124.441 34.0654 125.404 32.8825C126.343 31.7249 127.222 30.8553 128.005 30.3019C128.592 29.8897 128.92 29.8445 129.032 29.8445C129.088 29.8445 129.13 29.853 129.169 29.8723C129.267 29.915 129.597 30.1377 129.739 31.1852C129.871 32.1451 129.801 33.3874 129.532 34.8838ZM86.986 34.4885C86.8126 36.047 86.477 37.8258 85.9874 39.7795C85.495 41.7277 84.8237 43.7774 83.9873 45.878C83.1537 47.9673 82.267 49.9324 81.3467 51.7168C80.4459 53.4616 79.5369 54.9495 78.639 56.141C77.7662 57.2986 76.9466 58.1625 76.1997 58.7074C75.6487 59.1112 75.341 59.1564 75.2374 59.1564C75.1899 59.1564 75.1476 59.1479 75.1032 59.1276C75.0027 59.0828 74.6556 58.8537 74.4766 57.7893C74.3088 56.8152 74.2947 55.5588 74.429 54.0512C74.5689 52.5209 74.885 50.7619 75.3716 48.8251C75.8584 46.8854 76.5325 44.8329 77.3717 42.7266C78.2164 40.6091 79.106 38.6468 80.0151 36.8851C80.9102 35.143 81.8221 33.6382 82.7256 32.41C83.5928 31.2242 84.4152 30.349 85.1592 29.804C85.7103 29.4003 86.018 29.3551 86.1243 29.3551C86.1719 29.3551 86.2141 29.3636 86.2529 29.3839C86.3592 29.4287 86.72 29.6662 86.9411 30.7448C87.1369 31.7047 87.1532 32.9611 86.986 34.4885ZM173.019 21.5406C175.075 21.5406 176.843 22.1758 178.275 23.4322C179.657 24.6434 180.644 26.3742 181.206 28.5736C181.752 30.7052 181.864 33.283 181.542 36.239C181.22 39.1584 180.376 42.49 179.024 46.1406C177.752 49.5908 176.292 52.6259 174.691 55.1584C173.917 56.3894 173.119 57.5414 172.311 58.6058C172.207 58.7413 172.362 58.9192 172.51 58.8374C172.98 58.5804 173.447 58.3009 173.908 57.9959C174.96 57.3099 175.97 56.5701 176.929 55.7881C179.606 53.5999 181.55 50.6411 182.496 47.3151C183.061 45.3134 183.687 43.3285 184.37 41.3719C185.489 38.1505 186.683 35.1436 187.922 32.4331C189.153 29.7312 190.177 27.7096 190.966 26.4194C191.861 24.9512 193.114 24.0364 194.7 23.6976C196.183 23.3814 197.601 23.4039 198.905 23.7595C200.239 24.1266 201.33 24.7929 202.144 25.7471C203.03 26.789 203.223 27.9748 202.698 29.1775C202.541 29.5925 202.13 30.5412 201.475 32.0009C200.818 33.4691 200.079 35.1829 199.221 37.2496C198.395 39.2344 197.548 41.383 196.703 43.6304C195.878 45.8383 195.232 47.8993 194.784 49.7571C194.348 51.5641 194.177 53.0661 194.275 54.2209C194.37 55.3248 194.787 55.3248 195.014 55.3248C195.332 55.3248 195.898 55.1723 196.776 54.4496C197.621 53.7437 198.513 52.8939 199.433 51.9113C200.354 50.926 201.238 49.8644 202.054 48.7576C202.801 47.7497 203.442 46.8575 203.962 46.1037C204.415 45.4458 205.137 45.0703 205.94 45.0703C206.787 45.0703 207.61 45.4995 208.038 46.1629C208.454 46.8123 208.443 47.5859 208.001 48.2805C207.447 49.1529 206.48 50.6154 205.042 52.7583C203.618 54.8759 201.914 57.0583 199.979 59.2493C198.009 61.4713 195.858 63.4448 193.579 65.1134C191.181 66.8724 188.759 67.7617 186.384 67.7617C184.236 67.7617 182.633 67.0107 181.617 65.5256C180.695 64.1704 180.225 62.3522 180.225 60.1217V59.7659C180.23 59.5005 179.922 59.3509 179.718 59.5175C179.268 59.8817 178.804 60.2431 178.331 60.5989C175.539 62.6966 172.316 64.4753 168.747 65.8899C165.561 67.1547 162.05 67.7956 158.313 67.7956L157.552 67.7872L156.789 67.7615C154.243 67.7559 152.355 66.9512 151.172 65.3617C150.962 65.0822 150.769 64.7942 150.598 64.4977C150.461 64.2605 150.106 64.3001 150.028 64.5649C149.645 65.8552 149.281 67.1003 148.945 68.2918C148.218 70.8526 147.597 73.0689 147.051 75.0679C146.503 77.0725 146.028 78.8992 145.636 80.5057C145.258 82.0529 144.995 83.3065 144.861 84.2354L144.853 84.2698C144.509 86.0287 143.331 86.647 142.4 86.8588C141.986 86.9517 141.555 87 141.118 87C140.33 87 139.496 86.8447 138.643 86.5426C137.345 86.0795 136.178 85.2806 135.171 84.1654C134.128 83.0078 133.599 81.5594 133.599 79.8597C133.599 79.5152 133.686 78.7614 134.355 75.9861C134.855 73.9391 135.53 71.3924 136.366 68.4138C136.931 66.3951 137.574 64.1985 138.288 61.8494C138.371 61.5671 138.053 61.3327 137.812 61.4993C135.325 63.2075 132.536 64.6841 129.493 65.8897C126.304 67.1545 122.796 67.7954 119.059 67.7954C118.556 67.7954 118.041 67.7837 117.532 67.7613C114.989 67.7556 113.101 66.9509 111.915 65.3614C111.705 65.0819 111.515 64.7967 111.344 64.4975C111.205 64.2603 110.852 64.3026 110.774 64.5647C110.388 65.8578 110.024 67.1057 109.688 68.2915C108.958 70.8608 108.337 73.08 107.798 75.0676C107.249 77.0722 106.771 78.8989 106.379 80.5054C106.002 82.0555 105.742 83.309 105.604 84.2351L105.599 84.2695C105.255 86.0285 104.074 86.6468 103.143 86.8585C102.729 86.9514 102.301 86.9997 101.865 86.9997C101.076 86.9997 100.242 86.8444 99.3862 86.5423C98.0882 86.0794 96.9246 85.2803 95.9176 84.165C94.8742 83.0075 94.3455 81.5591 94.3455 79.8594C94.3455 79.5122 94.429 78.7583 95.1008 75.9857C95.6044 73.919 96.2784 71.3723 97.1092 68.4134C97.6016 66.6545 98.147 64.7798 98.7596 62.7554C98.8494 62.4504 98.4798 62.219 98.2449 62.4363C97.2016 63.3963 96.1274 64.2913 95.0253 65.1101C92.6616 66.869 90.256 67.7612 87.8783 67.7612C85.73 67.7612 84.1244 67.0102 83.1118 65.5251C82.7035 64.9262 82.3846 64.2345 82.1525 63.458C81.9483 62.7664 81.0699 62.5545 80.572 63.0769C79.8727 63.8109 79.1035 64.4801 78.2783 65.0702C77.2041 65.8382 76.0041 66.4819 74.7062 66.9844C73.3691 67.4982 71.9229 67.7608 70.4068 67.7608C68.3564 67.7608 66.5577 67.1313 65.064 65.8861C63.6094 64.6834 62.5325 62.9781 61.8583 60.8125C61.2038 58.7148 60.9632 56.137 61.1423 53.1471C61.3213 50.1938 61.987 46.8792 63.1227 43.2907C65.5424 35.8483 68.6977 30.3229 72.5047 26.8587C76.3818 23.3294 80.3147 21.5394 84.1945 21.5394C85.8365 21.5394 87.2267 21.8726 88.3205 22.5276C89.3974 23.1769 90.2282 24.0352 90.7904 25.0799C91.1652 25.7829 91.4394 26.5368 91.6073 27.3386C91.6375 27.4798 91.8282 27.5079 91.8982 27.3813C92.094 27.0255 92.2815 26.7066 92.4577 26.4157C93.3528 24.9532 94.5892 24.0384 96.1361 23.6968C97.5823 23.3806 98.9977 23.4003 100.338 23.7565C101.711 24.1236 102.822 24.7927 103.638 25.747C104.525 26.7888 104.718 27.9746 104.189 29.1774C104.036 29.5867 103.638 30.5128 102.97 32.0007C102.318 33.4576 101.557 35.2222 100.715 37.2494C99.8815 39.2568 99.034 41.4054 98.1976 43.6302C97.3696 45.8381 96.7235 47.902 96.2787 49.7569C95.8424 51.5667 95.6717 53.0687 95.7697 54.2207C95.8648 55.3246 96.2816 55.3246 96.5055 55.3246C96.8272 55.3246 97.3922 55.1721 98.2677 54.4494C98.7516 54.0456 99.2552 53.5911 99.7699 53.0913C101.764 51.1517 103.101 49.0342 103.994 46.4C105.18 42.9046 106.427 39.4545 107.708 36.1285C109.076 32.5909 110.411 29.4146 111.675 26.6872C112.335 25.2755 113.381 24.324 114.774 23.8666C116.081 23.4374 117.421 23.3472 118.738 23.5985C120.053 23.8525 121.205 24.3805 122.162 25.1711C122.587 25.5212 122.926 25.8995 123.177 26.2976C123.244 26.4049 123.323 26.4162 123.415 26.3286C124.545 25.2755 125.793 24.3099 127.138 23.4488C129.107 22.1811 131.337 21.5402 133.765 21.5402C135.818 21.5402 137.589 22.1754 139.018 23.4318C140.403 24.6459 141.39 26.3738 141.952 28.5732C142.498 30.702 142.61 33.2826 142.288 36.2386C141.966 39.1552 141.119 42.4896 139.771 46.1402C138.495 49.5932 137.035 52.6283 135.435 55.158C134.66 56.389 133.863 57.541 133.054 58.6054C132.951 58.7409 133.107 58.9188 133.256 58.837C133.723 58.58 134.19 58.3005 134.654 57.9955C135.407 57.5042 136.137 56.9848 136.842 56.4427C139.522 54.3873 141.522 51.5752 142.587 48.3735L143.007 47.1227C144.266 43.3676 145.597 39.669 146.962 36.1285C148.333 32.5852 149.667 29.4089 150.932 26.6872C151.589 25.2755 152.632 24.3268 154.031 23.8666C155.337 23.4374 156.677 23.3471 157.995 23.5984C159.309 23.8525 160.459 24.3805 161.416 25.1683C161.841 25.5211 162.179 25.8995 162.431 26.2976C162.499 26.4048 162.577 26.4162 162.669 26.3286C163.799 25.2755 165.047 24.3099 166.392 23.4487C168.364 22.1809 170.594 21.5406 173.019 21.5406ZM44.3615 3.95378C47.3098 3.95378 50.2637 4.29824 53.1449 4.97297C56.0457 5.65623 58.6779 6.69521 60.9632 8.06173C63.2766 9.44519 65.1759 11.1816 66.6081 13.2229C68.0683 15.3008 68.8068 17.7374 68.8068 20.4648C68.8068 23.4011 68.1578 26.1567 66.8767 28.6526C65.6067 31.123 63.8584 33.3789 61.6849 35.3581C59.5311 37.3232 56.9771 39.0567 54.0932 40.5079C51.7155 41.705 49.1896 42.7271 46.5657 43.5487C46.3979 43.602 46.3392 43.6899 46.3475 43.8592C46.4036 45.158 46.4958 46.4426 46.6273 47.6792C46.7755 49.0994 46.9713 50.4829 47.2119 51.7957C47.4469 53.086 47.7322 54.3424 48.0539 55.531C48.3056 56.4514 48.5854 57.3465 48.8847 58.1963C49.0749 58.7384 49.2763 59.2692 49.4805 59.7661C49.8917 60.7684 50.3449 61.7283 50.826 62.6177C51.2987 63.4929 51.8106 64.323 52.3477 65.0853C52.8709 65.8279 53.4331 66.5252 54.0177 67.1633C54.5884 67.7845 55.1926 68.3548 55.8136 68.863C56.4178 69.3571 57.0555 69.806 57.7073 70.19C58.3423 70.5683 59.008 70.8959 59.6878 71.1669C60.3564 71.4323 61.0472 71.6469 61.7437 71.8022C62.4431 71.9574 63.162 72.0562 63.8892 72.1043C64.6138 72.1491 65.369 72.1406 66.1215 72.0733C66.8879 72.0061 67.6711 71.8813 68.4488 71.6978C69.246 71.5115 70.0572 71.2658 70.8656 70.9637C71.6936 70.6532 72.53 70.2748 73.3552 69.8485C73.6713 69.6847 73.9902 69.5097 74.3063 69.329C75.3357 68.7361 76.6504 69.0185 77.3413 69.9783C78.0351 70.9383 77.8812 72.2653 76.9861 73.0445C76.5469 73.4257 76.105 73.7983 75.6686 74.1541C74.6084 75.018 73.5454 75.8199 72.5076 76.5342C71.523 77.2118 70.5216 77.8443 69.5314 78.4061C69.0363 78.6885 68.516 78.9652 67.9873 79.2305C66.9719 79.7443 65.9453 80.1962 64.9299 80.5745C63.9201 80.9499 62.9046 81.2634 61.9144 81.5005C60.927 81.7377 59.9312 81.9098 58.9605 82.0087C58.2668 82.0791 57.5731 82.116 56.8961 82.116C56.622 82.116 56.3478 82.1103 56.0737 82.0964C55.1338 82.0565 54.1995 81.9468 53.2932 81.7689C52.8457 81.6814 52.3925 81.574 51.9505 81.4498C51.5226 81.334 51.0834 81.1957 50.6442 81.0348C49.8022 80.7302 48.9659 80.3547 48.1658 79.9171C47.3826 79.4879 46.6105 78.9939 45.8777 78.4461C45.2847 78.0029 44.7028 77.5144 44.1518 76.9977C43.4888 76.3766 42.8426 75.6849 42.23 74.9508C41.6258 74.2252 41.0468 73.4403 40.5097 72.6187C39.9699 71.7999 39.4607 70.9247 38.9908 70.0212C38.5236 69.1177 38.0789 68.1578 37.6761 67.1696C37.276 66.1899 36.904 65.1509 36.5656 64.0752C36.2327 63.0192 35.9279 61.9012 35.6592 60.7492C35.3934 59.6001 35.1613 58.4087 34.9683 57.2059C34.7949 56.1415 34.6495 55.0376 34.5348 53.9167C34.5009 53.5779 34.0172 53.5327 33.9193 53.8633C33.4997 55.3258 33.1193 56.7431 32.7836 58.0984C32.3613 59.798 31.9724 61.3452 31.62 62.7343C31.276 64.0952 31.0326 65.1907 30.8927 65.9897C30.613 67.407 29.6815 68.302 28.1878 68.5928C26.9038 68.8469 25.5248 68.7397 24.1038 68.2823C22.6995 67.8277 21.424 67.04 20.3079 65.9361C19.1386 64.7785 18.5456 63.3245 18.5456 61.6107C18.5456 60.216 18.8981 58.0109 19.6198 54.8741C20.3246 51.8108 21.3401 48.1799 22.6436 44.0776C23.9359 40.0091 25.5052 35.5227 27.3038 30.7512C28.8479 26.6517 30.5822 22.5239 32.462 18.4526C33.0774 17.12 34.3501 16.2024 35.8187 16.033C39.139 15.6491 42.0202 15.745 44.4622 16.3154C45.9336 16.6598 46.7224 18.2494 46.107 19.6187C44.5322 23.114 43.0804 26.6009 41.7824 29.9946C40.7335 32.7417 39.7265 35.4606 38.7754 38.1061C38.6834 38.3688 38.9516 38.6115 39.2034 38.4957C40.4705 37.917 41.7209 37.2337 42.9433 36.4544C44.9461 35.1755 46.77 33.648 48.3672 31.9173C49.956 30.1866 51.2596 28.2356 52.2414 26.1153C53.2093 24.0147 53.7016 21.7334 53.7016 19.3279C53.7016 16.2363 52.84 13.9522 51.1421 12.5433C49.4218 11.1175 46.9993 10.3919 43.9391 10.3919C40.6803 10.3919 37.7012 11.1599 35.0858 12.676C32.4004 14.2289 30.0787 16.1375 28.185 18.351C26.2772 20.5814 24.7723 22.9644 23.7177 25.4348C22.6716 27.8827 22.1401 30.0284 22.1401 31.8156C22.1401 33.0946 21.4604 34.0179 20.2267 34.416C19.1442 34.7661 17.9498 34.7153 16.7246 34.2607C15.5469 33.8259 14.456 32.9648 13.4797 31.7056C12.4979 30.4407 12 28.7269 12 26.6122C12 24.7657 12.7049 22.5917 14.1539 19.966C15.5637 17.4052 17.6505 14.9121 20.3498 12.5546C23.0464 10.2028 26.4479 8.16145 30.4703 6.49002C34.5152 4.80729 39.1894 3.95378 44.3615 3.95378ZM204.832 2C209.344 2 213 5.64215 213 10.1313C213 14.6205 209.344 18.2626 204.832 18.2626C200.32 18.2626 196.664 14.6205 196.664 10.1313C196.664 5.64215 200.32 2 204.832 2Z" fill="#FF441F"/>
</svg>
