<svg width="411" height="87" viewBox="0 0 411 87" fill="none" xmlns="http://www.w3.org/2000/svg">
<path d="M94.7035 31.5983C94.6278 27.1206 89.7344 28.3473 89.7344 27.0095C89.7344 26.4492 89.8555 26.323 90.3549 26.323C92.615 26.323 94.8195 26.5704 97.0796 26.5704C98.9764 26.5704 100.883 26.323 102.775 26.323C103.759 26.323 103.941 26.4492 103.941 26.9389C103.941 28.418 99.5263 27.0095 99.5263 31.5983V64.4868C99.5263 68.6414 104.98 67.2481 104.98 69.0755C104.98 69.5097 104.793 69.6914 103.759 69.6914C102.346 69.6914 99.718 69.4491 97.0796 69.4491C93.3515 69.4491 92.06 69.6914 91.1923 69.6914C90.0926 69.6914 89.921 69.3986 89.921 68.7676C89.921 66.9907 94.7035 69.015 94.7035 62.9522V31.5983Z" fill="#191A19"/>
<path d="M157.678 61.2607C157.678 70.0646 164.11 66.8843 164.11 68.954C164.11 69.4084 163.858 69.7012 162.329 69.7012C160.236 69.7012 159.323 69.4538 155.726 69.4538C152.83 69.4538 150.817 69.7012 149.036 69.7012C148.668 69.7012 148.053 69.5144 148.053 68.954C148.053 67.3134 152.83 69.2014 152.83 62.4218V33.0871C152.83 25.727 147.811 29.4575 147.811 27.2616C147.811 26.7618 148.113 26.3277 148.613 26.3277C149.163 26.3277 151.317 26.5751 154.853 26.5751C157.905 26.5751 158.894 26.3277 161.84 26.3277C169.609 26.3277 178.246 29.0285 178.246 38.1454C178.246 40.6038 176.399 49.9176 163.374 49.9176C162.743 49.9176 159.202 49.6147 159.202 48.5193C159.202 48.0649 159.509 47.9488 159.817 47.9488C160.301 47.9488 161.598 48.3375 163.792 48.3375C170.033 48.3375 173.705 45.3238 173.705 39.8062C173.705 32.4057 168.01 28.4833 160.988 28.4833C159.015 28.4833 157.678 28.4833 157.678 30.3258V61.2607Z" fill="#191A19"/>
<path d="M225.131 62.1634C225.131 65.7829 224.636 67.2569 229.772 67.2569C243.912 67.2569 246.001 60.9316 246.798 60.9316C247.227 60.9316 247.287 61.5576 247.287 61.6687C247.287 63.8747 245.698 66.0252 244.225 67.6154C242.263 69.8113 240.926 69.7002 238.217 69.7002C233.566 69.7002 228.919 69.3267 224.273 69.4579C221.831 69.5185 219.243 69.7002 216.792 69.7002C216.252 69.7002 215.894 69.5841 215.894 69.0844C215.995 68.3524 216.62 68.4786 218.582 67.4993C220.172 66.7572 220.298 65.0509 220.298 62.1634V31.1175C220.298 27.9321 215.162 28.3561 215.162 27.1294C215.162 26.458 215.581 26.3318 216.368 26.3318C217.659 26.3318 219.561 26.5741 222.548 26.5741C226.049 26.5741 227.517 26.3318 228.44 26.3318C229.227 26.3318 229.6 26.458 229.6 27.185C229.6 28.5984 225.131 27.0638 225.131 32.4047V62.1634Z" fill="#191A19"/>
<path d="M297.23 44.1567C297.23 46.2366 297.099 46.2366 299.55 46.2366H306.159C312.515 46.2366 310.881 41.3399 312.344 41.3399C312.838 41.3399 313.015 42.0113 313.015 42.501C313.015 44.6464 312.894 46.7313 312.894 48.695C312.894 50.2801 313.015 51.8804 313.015 53.521C313.015 54.0763 312.778 54.3338 312.344 54.3338C310.447 54.3338 312.515 48.9424 307.375 48.9424H298.324C297.043 48.9424 297.23 49.9722 297.23 50.9111V62.1634C297.23 65.7829 296.735 67.2519 301.876 67.2519C316.012 67.2519 318.1 60.9316 318.897 60.9316C319.321 60.9316 319.376 61.5526 319.376 61.6636C319.376 63.8747 317.787 66.0252 316.314 67.6154C314.357 69.8113 313.015 69.7002 310.321 69.7002C305.675 69.7002 301.018 69.3216 296.367 69.4529C293.905 69.5135 291.358 69.7002 288.906 69.7002C288.351 69.7002 287.983 69.5791 287.983 69.0793C288.104 68.3524 288.724 68.4735 290.672 67.4993C292.271 66.7572 292.387 65.0459 292.387 62.1634V34.2473C292.387 31.486 292.387 28.5429 289.082 28.0532C288.588 27.9321 287.246 27.8008 287.246 27.0638C287.246 26.5741 287.614 26.3268 289.395 26.3268C300.958 26.3268 304.151 26.5741 306.714 26.5741C307.93 26.5741 313.565 26.3268 315.472 26.3268C315.946 26.3268 316.072 26.9477 316.072 27.6898C316.072 34.4744 315.23 34.9742 314.851 34.9742C313.393 34.9742 314.357 32.0261 313.393 30.6227C311.804 28.5429 305.428 28.9165 302.976 28.9165C297.099 28.9165 297.23 28.659 297.23 32.7581V44.1567Z" fill="#191A19"/>
<path d="M396.004 25.0001C393.537 25.0001 390.369 25.7825 388.033 27.8371C383.664 31.6737 380.743 38.0697 379.053 42.1586C378.513 43.557 377.974 43.981 377.686 43.981C377.313 43.981 376.934 43.6175 376.45 42.8704L369.932 32.335C369.559 31.7847 368.837 30.8105 368.837 29.8261C368.837 28.0542 371.713 27.9936 371.713 26.9486C371.713 26.3984 370.966 26.3277 370.543 26.3277C369.932 26.3277 368.283 26.5751 366.26 26.5751C362.098 26.5751 360.932 26.3277 359.283 26.3277C358.849 26.3277 358.48 26.8275 358.48 27.2566C358.48 28.2914 361.487 27.5595 363.066 30.1996L373.292 46.5505C373.786 47.2825 374.705 48.5193 374.705 49.6652V64.4915C374.705 68.848 369.993 67.2528 369.993 68.9541C369.993 69.6355 370.371 69.7012 370.906 69.7012C371.461 69.7012 373.665 69.4538 376.42 69.4538C378.69 69.4538 382.231 69.7012 383.155 69.7012C384.002 69.7012 384.557 69.6356 384.557 69.0803C384.557 67.1923 379.548 68.8985 379.548 63.5677V48.913C380.784 45.2228 383.351 39.2055 387.155 34.435C390.142 30.6843 393.673 27.7664 398.4 26.151C398.738 26.0248 399 25.8633 399 25.5503C399 24.9698 396.004 25.0001 396.004 25.0001Z" fill="#191A19"/>
<path d="M53.2261 70.3476C53.2261 70.0447 52.8527 69.9538 52.8527 69.9538C49.17 69.2774 45.7194 66.7028 43.1062 63.9667C38.8333 59.4991 35.2515 53.8099 33.8641 51.1597C33.4404 50.2106 34.0407 50.0945 34.0407 50.0945V50.0844C41.2396 47.3231 42.4151 40.1194 42.4151 38.1456C42.4151 29.0287 33.7885 26.3279 26.0144 26.3279C23.0834 26.3279 22.0997 26.5703 19.0476 26.5703C15.491 26.5703 13.3621 26.3279 12.792 26.3279C12.3178 26.3279 12 26.757 12 27.2568C12 29.4527 17.0196 25.7222 17.0196 33.0823V62.417C17.0196 69.1966 12.2472 67.3086 12.2472 68.9492C12.2472 69.5096 12.8576 69.6964 13.2309 69.6964C15.0067 69.6964 17.0196 69.449 19.885 69.449C23.5122 69.449 24.4354 69.6964 26.5139 69.6964C28.0424 69.6964 28.2796 69.4036 28.2796 68.9492C28.2796 66.8795 21.8575 70.0598 21.8575 61.2559V30.3261C21.8575 28.4835 23.1994 28.4835 25.1518 28.4835C32.2044 28.4835 37.7739 32.4008 37.8848 39.8064C37.9756 44.8293 34.2173 49.5998 27.9718 49.5998C25.7824 49.5998 26.2566 49.4685 25.7521 49.4685C25.4545 49.4685 25.1518 49.5947 25.1518 50.0137C25.1518 50.5892 25.6109 50.877 26.1406 51.0183C26.8317 51.3212 28.4006 51.5635 30.0452 54.1078C34.2173 60.9278 38.914 71.1855 49.6241 71.1855C53.6196 71.1855 53.2261 70.706 53.2261 70.3476Z" fill="#191A19"/>
</svg>
