<svg width="408" height="87" viewBox="0 0 408 87" fill="none" xmlns="http://www.w3.org/2000/svg">
<path fill-rule="evenodd" clip-rule="evenodd" d="M143.16 39.8823C158.733 36.0352 161.927 59.5965 149.194 62.978C133.415 67.1685 129.37 43.2893 143.16 39.8823ZM127.557 84.0001H134.966L134.97 64.9843C137.846 66.3479 138.29 68.8414 143.614 69.8608C154.617 71.9669 164.955 64.019 164.836 51.241C164.759 43.0542 160.211 37.0971 154.854 34.3762C151.62 32.7334 147.148 32.1865 143.15 33.1673C138.106 34.4055 137.434 36.6246 134.966 38.0817L134.962 33.4968L127.557 33.7195V84.0001Z" fill="#009FE5"/>
<path fill-rule="evenodd" clip-rule="evenodd" d="M333.734 40.0519C348.978 35.5969 353.627 58.7545 340.398 62.8483C325.157 67.5655 319.624 44.1751 333.734 40.0519ZM318.464 83.9996H325.741V64.9142C328.084 66.3002 335.014 74.0902 345.927 68.3799C351.146 65.6497 355.783 59.7429 355.69 51.2328C355.474 31.3631 332.697 28.4449 325.837 38.3055L325.412 33.5241C316.904 33.5403 318.453 32.046 318.464 40.666V83.9996Z" fill="#009FE5"/>
<path fill-rule="evenodd" clip-rule="evenodd" d="M245.521 40.0773C252.492 38.0548 258.274 42.5725 259.635 47.9394C261.436 55.0504 257.345 61.3531 252.171 62.8598C236.677 67.3728 231.459 44.1572 245.521 40.0773ZM259.805 37.8521C257.393 36.6742 256.08 34.0839 251.29 33.0514C240.798 30.7899 229.878 37.8112 229.876 51.2365C229.875 59.609 234.34 65.7873 239.718 68.4247C249.52 73.2301 255.215 68.0256 259.801 65.1809L259.799 69.0272C261.475 69.6761 265.017 69.342 266.947 69.3436L266.949 33.5255L259.803 33.5247L259.805 37.8521Z" fill="#009FE5"/>
<path fill-rule="evenodd" clip-rule="evenodd" d="M368.546 48.0536C371.21 36.1805 387.171 35.9361 388.879 48.1797L368.546 48.0536ZM396.417 53.989V46.6042C393.857 41.8847 394.687 39.5427 390.211 36.3004C380.013 28.9133 363.497 32.8238 361.054 47.588C356.816 73.1997 388.175 73.7272 395.23 64.951L392.189 59.8826C387.648 61.5022 384.534 64.415 377.486 63.2819C372.646 62.5038 369.361 59.1455 368.516 54.3108L396.417 53.989Z" fill="#009FE5"/>
<path fill-rule="evenodd" clip-rule="evenodd" d="M51.9408 19H45.1175L44.9922 69.3378L52.3925 69.3402C52.4103 62.8641 52.1744 56.0548 52.3901 49.6259C52.8364 36.3545 69.6881 35.2948 69.9612 50.1642C70.0764 56.4399 69.9705 62.8843 69.948 69.2829L77.3761 69.3378C77.3259 61.2593 78.8062 43.921 74.8586 38.2958C72.8631 35.4526 69.0361 32.6443 63.4921 32.6156C56.0586 32.5778 54.5256 36.2183 52.1457 37.3213L51.9408 19Z" fill="#009FE5"/>
<path fill-rule="evenodd" clip-rule="evenodd" d="M91.221 53.3508C90.2952 46.594 94.7378 40.5504 100.546 39.671C116.195 37.3027 118.581 61.489 103.994 63.1882C97.0999 63.991 92.0076 59.0882 91.221 53.3508ZM98.028 33.1578C74.5108 38.8132 81.3813 75.1085 106.923 69.8205C116.238 67.8923 123.49 58.3635 120.827 46.7224C118.791 37.8279 109.363 30.4314 98.028 33.1578Z" fill="#009FE5"/>
<path fill-rule="evenodd" clip-rule="evenodd" d="M224.972 61.505C219.997 63.4139 214.279 65.4782 213.398 58.1289C213.035 55.0986 212.896 42.3105 213.709 39.9005L225.633 39.6824L225.403 33.5405L213.312 33.525L213.313 21.3062C211.111 20.7052 208.109 20.7138 205.902 21.2962L205.899 33.5281L199.763 33.525L200.028 39.8216L205.902 40.2795C205.902 46.8491 204.854 61.1415 208.073 65.7357C212.015 71.3625 222.009 71.6208 227.525 67.0258L224.972 61.505Z" fill="#009FE5"/>
<path fill-rule="evenodd" clip-rule="evenodd" d="M173.543 58.4677C171.228 59.4376 170.286 60.952 168.417 62.099C172.413 75.3504 201.132 71.3641 194.708 55.3051C192.241 49.14 184.442 49.0402 179.51 45.6417C176.735 43.7298 177.68 39.2802 181.453 38.6738C185.864 37.9638 188.225 41.114 190.318 42.2819C191.347 41.2563 193.623 39.175 194.425 38.0999C192.2 33.5243 184.079 30.6958 177.188 33.3371C171.021 35.6999 167.728 43.8945 173.108 49.4231C176.598 53.0111 187.669 54.459 187.953 59.2241C188.337 65.6978 176.387 64.8726 173.543 58.4677Z" fill="#009FE5"/>
<path fill-rule="evenodd" clip-rule="evenodd" d="M16.4553 58.6476C14.7143 59.5711 12.4876 61.3337 11.7598 62.8621C16.6154 71.7358 33.348 73.3871 37.8572 63.1219C42.2844 53.0463 30.986 49.2317 25.5386 46.9153C17.334 43.4263 21.1447 37.405 27.8249 38.8336C31.4291 39.6047 31.4585 41.3929 33.966 42.3249C35.2236 40.3031 36.6212 39.624 37.6306 37.3563C22.8223 23.9758 6.82367 39.9187 16.5798 49.5295C20.2119 53.1082 31.0269 54.5321 31.1762 59.196C31.2845 62.6053 27.439 64.1119 24.0861 63.6301C20.1841 63.0694 18.6333 60.9153 16.4553 58.6476Z" fill="#009FE5"/>
<path fill-rule="evenodd" clip-rule="evenodd" d="M282.506 37.8168L282.237 33.5157L275.59 33.5249C274.508 37.543 275.226 63.2119 275.274 69.336L282.678 69.285C282.637 55.4218 278.801 37.1663 296.012 40.3745L296.176 33.4832C296.145 33.3679 296.087 33.1815 296.009 33.0462C289.9 31.613 284.7 34.1398 282.506 37.8168Z" fill="#009FE5"/>
<path fill-rule="evenodd" clip-rule="evenodd" d="M302.778 68.2675C304.685 68.2504 305.131 69.4918 306.231 69.4918C307.045 69.4918 307.704 68.8321 307.704 68.0184C307.704 66.4994 306.742 65.9448 308.012 64.0019C308.619 63.073 309.098 62.9624 309.408 62.6407C309.851 62.387 310.148 61.9098 310.148 61.363C310.148 60.5485 309.489 59.8888 308.675 59.8888C307.76 59.8888 306.275 59.4572 305.561 58.8655C304.693 58.1447 304.591 57.4725 304.194 56.7386C304.072 56.061 303.488 55.5436 302.778 55.5273C302.07 55.5436 301.484 56.061 301.363 56.7386C300.966 57.4725 300.865 58.1447 299.995 58.8655C299.282 59.4572 297.797 59.8888 296.882 59.8888C296.068 59.8888 295.408 60.5485 295.408 61.363C295.408 61.9098 295.707 62.387 296.149 62.6407C296.459 62.9624 296.938 63.073 297.544 64.0019C298.814 65.9448 297.853 66.4994 297.853 68.0184C297.853 68.8321 298.512 69.4918 299.326 69.4918C300.426 69.4918 300.872 68.2504 302.778 68.2675Z" fill="#4A078A"/>
</svg>
